{"asset":{"version":"2.0","generator":"babylon.js glTF exporter for Maya 2018 v20200613.4"},"scene":0,"scenes":[{"nodes":[0]}],"nodes":[{"mesh":0,"translation":[-0.0180025771,0.00613395451,0.0303700063],"scale":[0.649146855,0.649146855,0.649146855],"name":"hus"}],"meshes":[{"primitives":[{"attributes":{"POSITION":1,"TANGENT":2,"NORMAL":3,"TEXCOORD_0":4},"indices":0,"material":0}],"name":"hus"}],"accessors":[{"bufferView":0,"componentType":5123,"count":114,"type":"SCALAR","name":"accessorIndices"},{"bufferView":1,"componentType":5126,"count":70,"max":[0.06308516,0.0508541,-0.0220815632],"min":[-0.007661302,-0.009260962,-0.07182517],"type":"VEC3","name":"accessorPositions"},{"bufferView":2,"componentType":5126,"count":70,"type":"VEC4","name":"accessorTangents"},{"bufferView":1,"byteOffset":840,"componentType":5126,"count":70,"type":"VEC3","name":"accessorNormals"},{"bufferView":3,"componentType":5126,"count":70,"type":"VEC2","name":"accessorUVs"},{"bufferView":4,"componentType":5126,"count":2,"max":[8.291667],"min":[0.0],"type":"SCALAR","name":"accessorAnimationInput"},{"bufferView":5,"componentType":5126,"count":2,"type":"VEC3","name":"accessorAnimationScales"},{"bufferView":4,"byteOffset":8,"componentType":5126,"count":2,"max":[8.291667],"min":[0.0],"type":"SCALAR","name":"accessorAnimationInput"},{"bufferView":5,"byteOffset":24,"componentType":5126,"count":2,"type":"VEC3","name":"accessorAnimationPositions"}],"bufferViews":[{"buffer":0,"byteLength":228,"name":"bufferViewScalar"},{"buffer":0,"byteOffset":228,"byteLength":1680,"byteStride":12,"name":"bufferViewFloatVec3"},{"buffer":0,"byteOffset":1908,"byteLength":1120,"byteStride":16,"name":"bufferViewFloatVec4"},{"buffer":0,"byteOffset":3028,"byteLength":560,"byteStride":8,"name":"bufferViewFloatVec2"},{"buffer":0,"byteOffset":3588,"byteLength":16,"name":"bufferViewAnimationFloatScalar"},{"buffer":0,"byteOffset":3604,"byteLength":48,"name":"bufferViewAnimationFloatVec3"}],"buffers":[{"uri":"hus.bin","byteLength":3652}],"materials":[{"pbrMetallicRoughness":{"baseColorFactor":[0.5,0.5,0.5,1.0],"metallicFactor":0.0,"roughnessFactor":0.450053632},"name":"lambert1"}],"animations":[{"channels":[{"sampler":0,"target":{"node":0,"path":"scale"}},{"sampler":1,"target":{"node":0,"path":"translation"}}],"samplers":[{"input":5,"output":6},{"input":7,"output":8}],"name":"All Animations"}]}