{"asset":{"version":"2.0","generator":"babylon.js glTF exporter for Maya 2018 v20200813.4"},"scene":0,"scenes":[{"nodes":[0,1,2,3,4,5,6,7,8,9,10,11,12,13,14,15,16,17,18,19,20,21,22,23,24,25,26,27,28,29,30,31,32,33,34,35,36,37,38,39,40,41,42,43,44,45,46,47,48,49,50,51,52,53,54,55,56]}],"nodes":[{"mesh":0,"translation":[-0.0231026188,0.0,0.000100042285],"rotation":[0.0,0.707106769,0.0,0.707106769],"scale":[64.8988953,64.8988953,64.8988953],"name":"object_mark"},{"mesh":1,"translation":[0.2065261,0.005043333,0.3233438],"rotation":[0.0,0.707106769,0.0,0.707106769],"scale":[1.44444442,1.0,20.3422966],"name":"obstacle_stonewall7"},{"mesh":2,"translation":[-0.0943198949,7.105427E-17,0.160520315],"rotation":[0.0,0.707106769,0.0,0.707106769],"scale":[0.8052736,1.0,1.0],"name":"obstacle_hus5"},{"mesh":3,"translation":[-0.06374762,3.26764057E-05,-0.3041238],"rotation":[0.0,-0.06414895,0.0,0.997940361],"scale":[1.57653594,1.57653594,1.57653594],"name":"object_korvkiosk"},{"mesh":4,"translation":[0.0102952868,-0.0121413264,-0.436625063],"rotation":[0.0,0.730460644,0.0,0.6829548],"scale":[2.04662657,2.04662657,2.04662657],"name":"object_table2"},{"mesh":5,"translation":[-0.008224671,0.0,-0.005694003],"name":"obstacle_hus3"},{"mesh":6,"translation":[0.04191955,0.0,-0.122849509],"rotation":[0.0,0.2922385,0.0,0.956345439],"name":"obstacle_hus6"},{"mesh":7,"translation":[-0.09562963,7.105427E-17,-0.0330259],"rotation":[0.0,0.707106769,0.0,0.707106769],"scale":[0.8052736,1.0,-1.0],"name":"obstacle_hus1"},{"mesh":8,"translation":[-0.238974854,7.105427E-17,-0.157498449],"rotation":[0.0,0.8998262,0.0,0.436248571],"scale":[0.8052736,1.0,1.0],"name":"obstacle_hus2"},{"mesh":9,"translation":[-0.1881648,0.0,0.223404616],"rotation":[0.0,0.2618627,0.0,0.9651051],"scale":[1.32645118,1.32645118,1.32645118],"name":"obstacle_glasskiosk"},{"mesh":10,"translation":[0.03978028,-0.000215197375,0.0215826668],"scale":[0.8037633,0.8037633,0.8037633],"name":"obstacle_bussstop"},{"mesh":11,"translation":[0.129244208,0.0,-0.3297213],"rotation":[0.0,0.361335963,0.0,0.9324357],"name":"obstacle_hus12"},{"mesh":12,"translation":[-0.3036567,8.881784E-18,-0.3299712],"rotation":[0.0,0.36116,0.0,0.9325039],"name":"obstacle_hus8"},{"mesh":13,"translation":[-0.07789872,8.88178367E-17,-0.349860132],"rotation":[0.0,0.707106769,0.0,0.707106769],"scale":[0.8052736,1.0,1.0],"name":"obstacle_hus10"},{"mesh":14,"translation":[0.1958287,8.881784E-18,-0.349253118],"rotation":[0.0,0.707106769,0.0,0.707106769],"scale":[0.8052736,1.0,-1.0],"name":"obstacle_hus11"},{"mesh":15,"translation":[0.07674594,-0.00733042834,0.122199535],"scale":[1.5002135,1.5002135,1.5002135],"name":"destroyable_skylt4"},{"mesh":16,"translation":[0.354545444,8.881784E-18,-0.349253118],"rotation":[0.0,0.707106769,0.0,0.707106769],"scale":[0.8052736,1.0,-1.0],"name":"obstacle_hus13"},{"mesh":17,"translation":[-0.0814724043,8.881784E-18,-0.349253118],"rotation":[0.0,0.707106769,0.0,0.707106769],"scale":[0.8052736,1.0,-1.0],"name":"obstacle_hus9"},{"mesh":18,"translation":[-0.0885319039,0.00497929845,0.325483322],"rotation":[0.707106769,0.0,0.0,0.707106769],"scale":[2.40981221,1.0,1.0],"name":"obstacle_staket1"},{"mesh":19,"translation":[-0.0644619241,0.00497929845,0.325483322],"rotation":[0.707106769,0.0,0.0,0.707106769],"scale":[2.40981221,1.0,1.0],"name":"obstacle_staket2"},{"mesh":20,"translation":[0.08849151,0.00497929845,0.325483322],"rotation":[4.3297803E-17,-0.707106769,-0.707106769,4.3297803E-17],"scale":[2.40981221,1.0,-1.0],"name":"obstacle_staket8"},{"mesh":21,"translation":[-0.040376883,0.00497929845,0.325483322],"rotation":[0.707106769,0.0,0.0,0.707106769],"scale":[2.40981221,1.0,1.0],"name":"obstacle_staket3"},{"mesh":22,"translation":[-0.0162918381,0.00497929845,0.325483322],"rotation":[0.707106769,0.0,0.0,0.707106769],"scale":[2.40981221,1.0,1.0],"name":"obstacle_staket4"},{"mesh":23,"translation":[0.007839466,0.00497929845,0.325483322],"rotation":[0.707106769,0.0,0.0,0.707106769],"scale":[2.40981221,1.0,1.0],"name":"obstacle_staket5"},{"mesh":24,"translation":[0.0317551419,0.00497929845,0.325483322],"rotation":[0.707106769,0.0,0.0,0.707106769],"scale":[2.40981221,1.0,1.0],"name":"obstacle_staket6"},{"mesh":25,"translation":[0.05590577,0.00497929845,0.325483322],"rotation":[0.707106769,0.0,0.0,0.707106769],"scale":[2.40981221,1.0,1.0],"name":"obstacle_staket7"},{"mesh":26,"translation":[0.3015451,0.0,-0.2374278],"rotation":[0.0,1.0,0.0,6.123234E-17],"scale":[1.41111112,1.0,1.999753],"name":"obstacle_stop9"},{"mesh":27,"translation":[0.3015451,0.0,0.140151277],"rotation":[0.0,1.0,0.0,6.123234E-17],"scale":[1.41111112,1.0,1.999753],"name":"obstacle_stop10"},{"mesh":28,"translation":[-0.198693231,0.005043333,0.3233438],"rotation":[0.0,0.707106769,0.0,0.707106769],"scale":[1.44444442,1.0,18.9857235],"name":"obstacle_stonewall3"},{"mesh":29,"translation":[-0.288031369,0.0,-0.0433328],"scale":[1.41111112,1.0,1.999753],"name":"obstacle_stop4"},{"mesh":30,"translation":[-0.288925231,0.0,-0.0075216],"scale":[1.41111112,1.0,1.999753],"name":"obstacle_stop5"},{"mesh":31,"translation":[-0.290266037,0.0,0.02618679],"scale":[1.41111112,1.0,1.999753],"name":"obstacle_stop6"},{"mesh":32,"translation":[-0.290266037,0.0,0.0606429428],"scale":[1.41111112,1.0,1.999753],"name":"obstacle_stop7"},{"mesh":33,"translation":[-0.288925231,0.0,0.0936487243],"scale":[1.41111112,1.0,1.999753],"name":"obstacle_stop13"},{"mesh":34,"translation":[-0.288031369,0.0,0.126703352],"scale":[1.41111112,1.0,1.999753],"name":"obstacle_stop8"},{"mesh":35,"translation":[0.3023029,0.0,0.170589477],"rotation":[0.0,1.0,0.0,6.123234E-17],"scale":[1.41111112,1.0,1.999753],"name":"obstacle_stop11"},{"mesh":36,"translation":[0.3015451,0.0,0.201304257],"rotation":[0.0,1.0,0.0,6.123234E-17],"scale":[1.41111112,1.0,1.999753],"name":"obstacle_stop12"},{"mesh":37,"translation":[-0.288031369,0.0,-0.160989374],"scale":[1.41111112,1.0,1.999753],"name":"obstacle_stop3"},{"mesh":38,"translation":[-0.288925231,0.0,-0.1971185],"scale":[1.41111112,1.0,1.999753],"name":"obstacle_stop2"},{"mesh":39,"translation":[-0.288031369,0.0,-0.231831908],"scale":[1.41111112,1.0,1.999753],"name":"obstacle_stop1"},{"mesh":40,"translation":[-0.118648186,0.00497929845,-0.256469518],"rotation":[0.707106769,0.0,0.0,0.707106769],"scale":[2.40981221,1.0,1.0],"name":"obstacle_staket9"},{"mesh":41,"translation":[-0.09462436,0.00497929845,-0.256469518],"rotation":[0.707106769,0.0,0.0,0.707106769],"scale":[2.40981221,1.0,1.0],"name":"obstacle_staket10"},{"mesh":42,"translation":[-0.07047998,0.00497929845,-0.256469518],"rotation":[0.707106769,0.0,0.0,0.707106769],"scale":[2.40981221,1.0,1.0],"name":"obstacle_staket11"},{"mesh":43,"translation":[-0.0465056263,0.00497929845,-0.256469518],"rotation":[0.707106769,0.0,0.0,0.707106769],"scale":[2.40981221,1.0,1.0],"name":"obstacle_staket12"},{"mesh":44,"translation":[-0.0253763739,0.00497929845,-0.2565221],"rotation":[4.3297803E-17,-0.707106769,-0.707106769,4.3297803E-17],"scale":[2.40981221,1.0,-1.0],"name":"obstacle_staket13"},{"mesh":45,"translation":[-0.287662327,0.005043333,0.232711256],"scale":[1.44444442,1.0,18.8385181],"name":"obstacle_stonewall2"},{"mesh":46,"translation":[0.0259480048,-0.0121413264,-0.402950644],"rotation":[0.0,0.6005438,0.0,0.7995919],"scale":[2.04662657,2.04662657,2.04662657],"name":"object_table1"},{"mesh":47,"translation":[-0.287662327,0.005043333,-0.1013455],"scale":[1.44444442,1.0,8.214323],"name":"obstacle_stonewall1"},{"mesh":48,"translation":[0.301612228,0.005043333,0.274371475],"scale":[1.44444442,1.0,10.5959711],"name":"obstacle_stonewall6"},{"mesh":49,"translation":[0.3012166,0.005043333,0.0294244811],"scale":[1.44444442,1.0,18.8385181],"name":"obstacle_stonewall5"},{"mesh":50,"translation":[0.3012166,0.005043333,-0.125958681],"scale":[1.44444442,1.0,18.8385181],"name":"obstacle_stonewall4"},{"mesh":51,"translation":[0.07990991,0.00497929845,0.325483322],"rotation":[0.707106769,0.0,0.0,0.707106769],"scale":[2.40981221,1.0,1.0],"name":"obstacle_staket14"},{"mesh":52,"translation":[-0.05531845,-0.00733042834,0.00500944024],"scale":[1.5002135,1.5002135,1.5002135],"name":"destroyable_skylt1"},{"mesh":53,"translation":[0.09201534,-0.00733042834,-0.183873937],"scale":[1.5002135,1.5002135,1.5002135],"name":"destroyable_skylt3"},{"mesh":54,"translation":[0.004320308,-0.00733042834,-0.307005942],"scale":[1.5002135,1.5002135,1.5002135],"name":"destroyable_skylt2"},{"mesh":55,"translation":[0.437633574,-0.00733042834,0.0314316638],"scale":[1.5002135,1.5002135,1.5002135],"name":"destroyable_skylt5"},{"translation":[-6.661338E-18,3.330669E-18,0.08571301],"name":"ambientLight1"}],"meshes":[{"primitives":[{"attributes":{"POSITION":1,"TANGENT":2,"NORMAL":3,"TEXCOORD_0":4},"indices":0,"material":0}],"name":"object_mark"},{"primitives":[{"attributes":{"POSITION":6,"TANGENT":7,"NORMAL":8,"TEXCOORD_0":9},"indices":5,"material":1}],"name":"obstacle_stonewall7"},{"primitives":[{"attributes":{"POSITION":11,"TANGENT":12,"NORMAL":13,"TEXCOORD_0":14},"indices":10,"material":2}],"name":"obstacle_hus5"},{"primitives":[{"attributes":{"POSITION":16,"TANGENT":17,"NORMAL":18,"TEXCOORD_0":19},"indices":15,"material":3}],"name":"object_korvkiosk"},{"primitives":[{"attributes":{"POSITION":21,"TANGENT":22,"NORMAL":23,"TEXCOORD_0":24},"indices":20,"material":4}],"name":"object_table2"},{"primitives":[{"attributes":{"POSITION":26,"TANGENT":27,"NORMAL":28,"TEXCOORD_0":29},"indices":25,"material":5}],"name":"obstacle_hus3"},{"primitives":[{"attributes":{"POSITION":31,"TANGENT":32,"NORMAL":33,"TEXCOORD_0":34},"indices":30,"material":6}],"name":"obstacle_hus6"},{"primitives":[{"attributes":{"POSITION":36,"TANGENT":37,"NORMAL":38,"TEXCOORD_0":39},"indices":35,"material":7}],"name":"obstacle_hus1"},{"primitives":[{"attributes":{"POSITION":41,"TANGENT":42,"NORMAL":43,"TEXCOORD_0":44},"indices":40,"material":8}],"name":"obstacle_hus2"},{"primitives":[{"attributes":{"POSITION":46,"TANGENT":47,"NORMAL":48,"TEXCOORD_0":49},"indices":45,"material":9}],"name":"obstacle_glasskiosk"},{"primitives":[{"attributes":{"POSITION":51,"TANGENT":52,"NORMAL":53,"TEXCOORD_0":54},"indices":50,"material":10}],"name":"obstacle_bussstop"},{"primitives":[{"attributes":{"POSITION":56,"TANGENT":57,"NORMAL":58,"TEXCOORD_0":59},"indices":55,"material":6}],"name":"obstacle_hus12"},{"primitives":[{"attributes":{"POSITION":61,"TANGENT":62,"NORMAL":63,"TEXCOORD_0":64},"indices":60,"material":5}],"name":"obstacle_hus8"},{"primitives":[{"attributes":{"POSITION":66,"TANGENT":67,"NORMAL":68,"TEXCOORD_0":69},"indices":65,"material":2}],"name":"obstacle_hus10"},{"primitives":[{"attributes":{"POSITION":71,"TANGENT":72,"NORMAL":73,"TEXCOORD_0":74},"indices":70,"material":11}],"name":"obstacle_hus11"},{"primitives":[{"attributes":{"POSITION":76,"TANGENT":77,"NORMAL":78,"TEXCOORD_0":79},"indices":75,"material":12}],"name":"destroyable_skylt4"},{"primitives":[{"attributes":{"POSITION":81,"TANGENT":82,"NORMAL":83,"TEXCOORD_0":84},"indices":80,"material":11}],"name":"obstacle_hus13"},{"primitives":[{"attributes":{"POSITION":86,"TANGENT":87,"NORMAL":88,"TEXCOORD_0":89},"indices":85,"material":11}],"name":"obstacle_hus9"},{"primitives":[{"attributes":{"POSITION":91,"TANGENT":92,"NORMAL":93,"TEXCOORD_0":94},"indices":90,"material":13}],"name":"obstacle_staket1"},{"primitives":[{"attributes":{"POSITION":96,"TANGENT":97,"NORMAL":98,"TEXCOORD_0":99},"indices":95,"material":13}],"name":"obstacle_staket2"},{"primitives":[{"attributes":{"POSITION":101,"TANGENT":102,"NORMAL":103,"TEXCOORD_0":104},"indices":100,"material":13}],"name":"obstacle_staket8"},{"primitives":[{"attributes":{"POSITION":106,"TANGENT":107,"NORMAL":108,"TEXCOORD_0":109},"indices":105,"material":13}],"name":"obstacle_staket3"},{"primitives":[{"attributes":{"POSITION":111,"TANGENT":112,"NORMAL":113,"TEXCOORD_0":114},"indices":110,"material":13}],"name":"obstacle_staket4"},{"primitives":[{"attributes":{"POSITION":116,"TANGENT":117,"NORMAL":118,"TEXCOORD_0":119},"indices":115,"material":13}],"name":"obstacle_staket5"},{"primitives":[{"attributes":{"POSITION":121,"TANGENT":122,"NORMAL":123,"TEXCOORD_0":124},"indices":120,"material":13}],"name":"obstacle_staket6"},{"primitives":[{"attributes":{"POSITION":126,"TANGENT":127,"NORMAL":128,"TEXCOORD_0":129},"indices":125,"material":13}],"name":"obstacle_staket7"},{"primitives":[{"attributes":{"POSITION":131,"TANGENT":132,"NORMAL":133,"TEXCOORD_0":134},"indices":130,"material":14}],"name":"obstacle_stop9"},{"primitives":[{"attributes":{"POSITION":136,"TANGENT":137,"NORMAL":138,"TEXCOORD_0":139},"indices":135,"material":14}],"name":"obstacle_stop10"},{"primitives":[{"attributes":{"POSITION":141,"TANGENT":142,"NORMAL":143,"TEXCOORD_0":144},"indices":140,"material":1}],"name":"obstacle_stonewall3"},{"primitives":[{"attributes":{"POSITION":146,"TANGENT":147,"NORMAL":148,"TEXCOORD_0":149},"indices":145,"material":14}],"name":"obstacle_stop4"},{"primitives":[{"attributes":{"POSITION":151,"TANGENT":152,"NORMAL":153,"TEXCOORD_0":154},"indices":150,"material":14}],"name":"obstacle_stop5"},{"primitives":[{"attributes":{"POSITION":156,"TANGENT":157,"NORMAL":158,"TEXCOORD_0":159},"indices":155,"material":14}],"name":"obstacle_stop6"},{"primitives":[{"attributes":{"POSITION":161,"TANGENT":162,"NORMAL":163,"TEXCOORD_0":164},"indices":160,"material":14}],"name":"obstacle_stop7"},{"primitives":[{"attributes":{"POSITION":166,"TANGENT":167,"NORMAL":168,"TEXCOORD_0":169},"indices":165,"material":14}],"name":"obstacle_stop13"},{"primitives":[{"attributes":{"POSITION":171,"TANGENT":172,"NORMAL":173,"TEXCOORD_0":174},"indices":170,"material":14}],"name":"obstacle_stop8"},{"primitives":[{"attributes":{"POSITION":176,"TANGENT":177,"NORMAL":178,"TEXCOORD_0":179},"indices":175,"material":14}],"name":"obstacle_stop11"},{"primitives":[{"attributes":{"POSITION":181,"TANGENT":182,"NORMAL":183,"TEXCOORD_0":184},"indices":180,"material":14}],"name":"obstacle_stop12"},{"primitives":[{"attributes":{"POSITION":186,"TANGENT":187,"NORMAL":188,"TEXCOORD_0":189},"indices":185,"material":14}],"name":"obstacle_stop3"},{"primitives":[{"attributes":{"POSITION":191,"TANGENT":192,"NORMAL":193,"TEXCOORD_0":194},"indices":190,"material":14}],"name":"obstacle_stop2"},{"primitives":[{"attributes":{"POSITION":196,"TANGENT":197,"NORMAL":198,"TEXCOORD_0":199},"indices":195,"material":14}],"name":"obstacle_stop1"},{"primitives":[{"attributes":{"POSITION":201,"TANGENT":202,"NORMAL":203,"TEXCOORD_0":204},"indices":200,"material":13}],"name":"obstacle_staket9"},{"primitives":[{"attributes":{"POSITION":206,"TANGENT":207,"NORMAL":208,"TEXCOORD_0":209},"indices":205,"material":13}],"name":"obstacle_staket10"},{"primitives":[{"attributes":{"POSITION":211,"TANGENT":212,"NORMAL":213,"TEXCOORD_0":214},"indices":210,"material":13}],"name":"obstacle_staket11"},{"primitives":[{"attributes":{"POSITION":216,"TANGENT":217,"NORMAL":218,"TEXCOORD_0":219},"indices":215,"material":13}],"name":"obstacle_staket12"},{"primitives":[{"attributes":{"POSITION":221,"TANGENT":222,"NORMAL":223,"TEXCOORD_0":224},"indices":220,"material":13}],"name":"obstacle_staket13"},{"primitives":[{"attributes":{"POSITION":226,"TANGENT":227,"NORMAL":228,"TEXCOORD_0":229},"indices":225,"material":1}],"name":"obstacle_stonewall2"},{"primitives":[{"attributes":{"POSITION":231,"TANGENT":232,"NORMAL":233,"TEXCOORD_0":234},"indices":230,"material":4}],"name":"object_table1"},{"primitives":[{"attributes":{"POSITION":236,"TANGENT":237,"NORMAL":238,"TEXCOORD_0":239},"indices":235,"material":1}],"name":"obstacle_stonewall1"},{"primitives":[{"attributes":{"POSITION":241,"TANGENT":242,"NORMAL":243,"TEXCOORD_0":244},"indices":240,"material":1}],"name":"obstacle_stonewall6"},{"primitives":[{"attributes":{"POSITION":246,"TANGENT":247,"NORMAL":248,"TEXCOORD_0":249},"indices":245,"material":1}],"name":"obstacle_stonewall5"},{"primitives":[{"attributes":{"POSITION":251,"TANGENT":252,"NORMAL":253,"TEXCOORD_0":254},"indices":250,"material":1}],"name":"obstacle_stonewall4"},{"primitives":[{"attributes":{"POSITION":256,"TANGENT":257,"NORMAL":258,"TEXCOORD_0":259},"indices":255,"material":13}],"name":"obstacle_staket14"},{"primitives":[{"attributes":{"POSITION":261,"TANGENT":262,"NORMAL":263,"TEXCOORD_0":264},"indices":260,"material":12}],"name":"destroyable_skylt1"},{"primitives":[{"attributes":{"POSITION":266,"TANGENT":267,"NORMAL":268,"TEXCOORD_0":269},"indices":265,"material":12}],"name":"destroyable_skylt3"},{"primitives":[{"attributes":{"POSITION":271,"TANGENT":272,"NORMAL":273,"TEXCOORD_0":274},"indices":270,"material":12}],"name":"destroyable_skylt2"},{"primitives":[{"attributes":{"POSITION":276,"TANGENT":277,"NORMAL":278,"TEXCOORD_0":279},"indices":275,"material":12}],"name":"destroyable_skylt5"}],"accessors":[{"bufferView":0,"componentType":5123,"count":150,"type":"SCALAR","name":"accessorIndices"},{"bufferView":1,"componentType":5126,"count":52,"max":[0.005,0.0,0.005372753],"min":[-0.00536164641,0.0,-0.004447529],"type":"VEC3","name":"accessorPositions"},{"bufferView":2,"componentType":5126,"count":52,"type":"VEC4","name":"accessorTangents"},{"bufferView":1,"byteOffset":624,"componentType":5126,"count":52,"type":"VEC3","name":"accessorNormals"},{"bufferView":3,"componentType":5126,"count":52,"type":"VEC2","name":"accessorUVs"},{"bufferView":0,"byteOffset":300,"componentType":5123,"count":120,"type":"SCALAR","name":"accessorIndices"},{"bufferView":1,"byteOffset":1248,"componentType":5126,"count":58,"max":[0.00636538351,0.0122626051,0.005],"min":[-0.00636538351,-0.005,-0.00514788833],"type":"VEC3","name":"accessorPositions"},{"bufferView":2,"byteOffset":832,"componentType":5126,"count":58,"type":"VEC4","name":"accessorTangents"},{"bufferView":1,"byteOffset":1944,"componentType":5126,"count":58,"type":"VEC3","name":"accessorNormals"},{"bufferView":3,"byteOffset":416,"componentType":5126,"count":58,"type":"VEC2","name":"accessorUVs"},{"bufferView":0,"byteOffset":540,"componentType":5123,"count":138,"type":"SCALAR","name":"accessorIndices"},{"bufferView":1,"byteOffset":2640,"componentType":5126,"count":84,"max":[-0.0736018345,0.04440218,0.122092284],"min":[-0.118887424,-0.000112649053,0.06615949],"type":"VEC3","name":"accessorPositions"},{"bufferView":2,"byteOffset":1760,"componentType":5126,"count":84,"type":"VEC4","name":"accessorTangents"},{"bufferView":1,"byteOffset":3648,"componentType":5126,"count":84,"type":"VEC3","name":"accessorNormals"},{"bufferView":3,"byteOffset":880,"componentType":5126,"count":84,"type":"VEC2","name":"accessorUVs"},{"bufferView":0,"byteOffset":816,"componentType":5123,"count":1008,"type":"SCALAR","name":"accessorIndices"},{"bufferView":1,"byteOffset":4656,"componentType":5126,"count":497,"max":[0.0218063,0.02283425,0.0101499],"min":[0.00900706,3.97599979E-05,-5.95E-05],"type":"VEC3","name":"accessorPositions"},{"bufferView":2,"byteOffset":3104,"componentType":5126,"count":497,"type":"VEC4","name":"accessorTangents"},{"bufferView":1,"byteOffset":10620,"componentType":5126,"count":497,"type":"VEC3","name":"accessorNormals"},{"bufferView":3,"byteOffset":1552,"componentType":5126,"count":497,"type":"VEC2","name":"accessorUVs"},{"bufferView":0,"byteOffset":2832,"componentType":5123,"count":174,"type":"SCALAR","name":"accessorIndices"},{"bufferView":1,"byteOffset":16584,"componentType":5126,"count":116,"max":[-0.06713055,0.00964115,-0.04329515],"min":[-0.07399992,0.00602859026,-0.0506572276],"type":"VEC3","name":"accessorPositions"},{"bufferView":2,"byteOffset":11056,"componentType":5126,"count":116,"type":"VEC4","name":"accessorTangents"},{"bufferView":1,"byteOffset":17976,"componentType":5126,"count":116,"type":"VEC3","name":"accessorNormals"},{"bufferView":3,"byteOffset":5528,"componentType":5126,"count":116,"type":"VEC2","name":"accessorUVs"},{"bufferView":0,"byteOffset":3180,"componentType":5123,"count":252,"type":"SCALAR","name":"accessorIndices"},{"bufferView":1,"byteOffset":19368,"componentType":5126,"count":140,"max":[0.0268617049,0.06543826,0.10590075],"min":[-0.03763065,-0.000831156271,0.0418695137],"type":"VEC3","name":"accessorPositions"},{"bufferView":2,"byteOffset":12912,"componentType":5126,"count":140,"type":"VEC4","name":"accessorTangents"},{"bufferView":1,"byteOffset":21048,"componentType":5126,"count":140,"type":"VEC3","name":"accessorNormals"},{"bufferView":3,"byteOffset":6456,"componentType":5126,"count":140,"type":"VEC2","name":"accessorUVs"},{"bufferView":0,"byteOffset":3684,"componentType":5123,"count":252,"type":"SCALAR","name":"accessorIndices"},{"bufferView":1,"byteOffset":22728,"componentType":5126,"count":140,"max":[0.0268617049,0.06543826,0.10590075],"min":[-0.03763065,-0.000831156271,0.0418695137],"type":"VEC3","name":"accessorPositions"},{"bufferView":2,"byteOffset":15152,"componentType":5126,"count":140,"type":"VEC4","name":"accessorTangents"},{"bufferView":1,"byteOffset":24408,"componentType":5126,"count":140,"type":"VEC3","name":"accessorNormals"},{"bufferView":3,"byteOffset":7576,"componentType":5126,"count":140,"type":"VEC2","name":"accessorUVs"},{"bufferView":0,"byteOffset":4188,"componentType":5123,"count":138,"type":"SCALAR","name":"accessorIndices"},{"bufferView":1,"byteOffset":26088,"componentType":5126,"count":84,"max":[-0.0736018345,0.04440218,0.122092284],"min":[-0.118887424,-0.000112649053,0.06615949],"type":"VEC3","name":"accessorPositions"},{"bufferView":2,"byteOffset":17392,"componentType":5126,"count":84,"type":"VEC4","name":"accessorTangents"},{"bufferView":1,"byteOffset":27096,"componentType":5126,"count":84,"type":"VEC3","name":"accessorNormals"},{"bufferView":3,"byteOffset":8696,"componentType":5126,"count":84,"type":"VEC2","name":"accessorUVs"},{"bufferView":0,"byteOffset":4464,"componentType":5123,"count":138,"type":"SCALAR","name":"accessorIndices"},{"bufferView":1,"byteOffset":28104,"componentType":5126,"count":84,"max":[-0.0736018345,0.04440218,0.122092284],"min":[-0.118887424,-0.000112649053,0.06615949],"type":"VEC3","name":"accessorPositions"},{"bufferView":2,"byteOffset":18736,"componentType":5126,"count":84,"type":"VEC4","name":"accessorTangents"},{"bufferView":1,"byteOffset":29112,"componentType":5126,"count":84,"type":"VEC3","name":"accessorNormals"},{"bufferView":3,"byteOffset":9368,"componentType":5126,"count":84,"type":"VEC2","name":"accessorUVs"},{"bufferView":0,"byteOffset":4740,"componentType":5123,"count":642,"type":"SCALAR","name":"accessorIndices"},{"bufferView":1,"byteOffset":30120,"componentType":5126,"count":297,"max":[-0.00015805,0.0347259976,0.00392222],"min":[-0.01003059,-1.3E-05,-0.0107425405],"type":"VEC3","name":"accessorPositions"},{"bufferView":2,"byteOffset":20080,"componentType":5126,"count":297,"type":"VEC4","name":"accessorTangents"},{"bufferView":1,"byteOffset":33684,"componentType":5126,"count":297,"type":"VEC3","name":"accessorNormals"},{"bufferView":3,"byteOffset":10040,"componentType":5126,"count":297,"type":"VEC2","name":"accessorUVs"},{"bufferView":0,"byteOffset":6024,"componentType":5123,"count":138,"type":"SCALAR","name":"accessorIndices"},{"bufferView":1,"byteOffset":37248,"componentType":5126,"count":74,"max":[0.229566574,0.0610887259,0.143572554],"min":[0.175448447,-0.000171488515,0.114728093],"type":"VEC3","name":"accessorPositions"},{"bufferView":2,"byteOffset":24832,"componentType":5126,"count":74,"type":"VEC4","name":"accessorTangents"},{"bufferView":1,"byteOffset":38136,"componentType":5126,"count":74,"type":"VEC3","name":"accessorNormals"},{"bufferView":3,"byteOffset":12416,"componentType":5126,"count":74,"type":"VEC2","name":"accessorUVs"},{"bufferView":0,"byteOffset":6300,"componentType":5123,"count":252,"type":"SCALAR","name":"accessorIndices"},{"bufferView":1,"byteOffset":39024,"componentType":5126,"count":140,"max":[0.0268617049,0.06543826,0.10590075],"min":[-0.03763065,-0.000831156271,0.0418695137],"type":"VEC3","name":"accessorPositions"},{"bufferView":2,"byteOffset":26016,"componentType":5126,"count":140,"type":"VEC4","name":"accessorTangents"},{"bufferView":1,"byteOffset":40704,"componentType":5126,"count":140,"type":"VEC3","name":"accessorNormals"},{"bufferView":3,"byteOffset":13008,"componentType":5126,"count":140,"type":"VEC2","name":"accessorUVs"},{"bufferView":0,"byteOffset":6804,"componentType":5123,"count":252,"type":"SCALAR","name":"accessorIndices"},{"bufferView":1,"byteOffset":42384,"componentType":5126,"count":140,"max":[0.0268617049,0.06543826,0.10590075],"min":[-0.03763065,-0.000831156271,0.0418695137],"type":"VEC3","name":"accessorPositions"},{"bufferView":2,"byteOffset":28256,"componentType":5126,"count":140,"type":"VEC4","name":"accessorTangents"},{"bufferView":1,"byteOffset":44064,"componentType":5126,"count":140,"type":"VEC3","name":"accessorNormals"},{"bufferView":3,"byteOffset":14128,"componentType":5126,"count":140,"type":"VEC2","name":"accessorUVs"},{"bufferView":0,"byteOffset":7308,"componentType":5123,"count":138,"type":"SCALAR","name":"accessorIndices"},{"bufferView":1,"byteOffset":45744,"componentType":5126,"count":84,"max":[-0.0736018345,0.04440218,0.122092284],"min":[-0.118887424,-0.000112649053,0.06615949],"type":"VEC3","name":"accessorPositions"},{"bufferView":2,"byteOffset":30496,"componentType":5126,"count":84,"type":"VEC4","name":"accessorTangents"},{"bufferView":1,"byteOffset":46752,"componentType":5126,"count":84,"type":"VEC3","name":"accessorNormals"},{"bufferView":3,"byteOffset":15248,"componentType":5126,"count":84,"type":"VEC2","name":"accessorUVs"},{"bufferView":0,"byteOffset":7584,"componentType":5123,"count":96,"type":"SCALAR","name":"accessorIndices"},{"bufferView":1,"byteOffset":47760,"componentType":5126,"count":58,"max":[-0.0443536267,0.08974262,0.152117968],"min":[-0.118887424,-0.000112649053,0.04992819],"type":"VEC3","name":"accessorPositions"},{"bufferView":2,"byteOffset":31840,"componentType":5126,"count":58,"type":"VEC4","name":"accessorTangents"},{"bufferView":1,"byteOffset":48456,"componentType":5126,"count":58,"type":"VEC3","name":"accessorNormals"},{"bufferView":3,"byteOffset":15920,"componentType":5126,"count":58,"type":"VEC2","name":"accessorUVs"},{"bufferView":0,"byteOffset":7776,"componentType":5123,"count":96,"type":"SCALAR","name":"accessorIndices"},{"bufferView":1,"byteOffset":49152,"componentType":5126,"count":48,"max":[-0.102414608,0.029192796,0.07826558],"min":[-0.110688627,0.004831934,0.07714029],"type":"VEC3","name":"accessorPositions"},{"bufferView":2,"byteOffset":32768,"componentType":5126,"count":48,"type":"VEC4","name":"accessorTangents"},{"bufferView":1,"byteOffset":49728,"componentType":5126,"count":48,"type":"VEC3","name":"accessorNormals"},{"bufferView":3,"byteOffset":16384,"componentType":5126,"count":48,"type":"VEC2","name":"accessorUVs"},{"bufferView":0,"byteOffset":7968,"componentType":5123,"count":96,"type":"SCALAR","name":"accessorIndices"},{"bufferView":1,"byteOffset":50304,"componentType":5126,"count":58,"max":[-0.0443536267,0.08974262,0.152117968],"min":[-0.118887424,-0.000112649053,0.04992819],"type":"VEC3","name":"accessorPositions"},{"bufferView":2,"byteOffset":33536,"componentType":5126,"count":58,"type":"VEC4","name":"accessorTangents"},{"bufferView":1,"byteOffset":51000,"componentType":5126,"count":58,"type":"VEC3","name":"accessorNormals"},{"bufferView":3,"byteOffset":16768,"componentType":5126,"count":58,"type":"VEC2","name":"accessorUVs"},{"bufferView":0,"byteOffset":8160,"componentType":5123,"count":96,"type":"SCALAR","name":"accessorIndices"},{"bufferView":1,"byteOffset":51696,"componentType":5126,"count":58,"max":[-0.0443536267,0.08974262,0.152117968],"min":[-0.118887424,-0.000112649053,0.04992819],"type":"VEC3","name":"accessorPositions"},{"bufferView":2,"byteOffset":34464,"componentType":5126,"count":58,"type":"VEC4","name":"accessorTangents"},{"bufferView":1,"byteOffset":52392,"componentType":5126,"count":58,"type":"VEC3","name":"accessorNormals"},{"bufferView":3,"byteOffset":17232,"componentType":5126,"count":58,"type":"VEC2","name":"accessorUVs"},{"bufferView":0,"byteOffset":8352,"componentType":5123,"count":6,"type":"SCALAR","name":"accessorIndices"},{"bufferView":1,"byteOffset":53088,"componentType":5126,"count":4,"max":[0.005,0.0,0.005],"min":[-0.005,0.0,-0.0131412381],"type":"VEC3","name":"accessorPositions"},{"bufferView":2,"byteOffset":35392,"componentType":5126,"count":4,"type":"VEC4","name":"accessorTangents"},{"bufferView":1,"byteOffset":53136,"componentType":5126,"count":4,"type":"VEC3","name":"accessorNormals"},{"bufferView":3,"byteOffset":17696,"componentType":5126,"count":4,"type":"VEC2","name":"accessorUVs"},{"bufferView":0,"byteOffset":8364,"componentType":5123,"count":6,"type":"SCALAR","name":"accessorIndices"},{"bufferView":1,"byteOffset":53184,"componentType":5126,"count":4,"max":[0.005,0.0,0.005],"min":[-0.005,0.0,-0.0131412381],"type":"VEC3","name":"accessorPositions"},{"bufferView":2,"byteOffset":35456,"componentType":5126,"count":4,"type":"VEC4","name":"accessorTangents"},{"bufferView":1,"byteOffset":53232,"componentType":5126,"count":4,"type":"VEC3","name":"accessorNormals"},{"bufferView":3,"byteOffset":17728,"componentType":5126,"count":4,"type":"VEC2","name":"accessorUVs"},{"bufferView":0,"byteOffset":8376,"componentType":5123,"count":6,"type":"SCALAR","name":"accessorIndices"},{"bufferView":1,"byteOffset":53280,"componentType":5126,"count":4,"max":[0.005,0.0,0.005],"min":[-0.005,0.0,-0.0131412381],"type":"VEC3","name":"accessorPositions"},{"bufferView":2,"byteOffset":35520,"componentType":5126,"count":4,"type":"VEC4","name":"accessorTangents"},{"bufferView":1,"byteOffset":53328,"componentType":5126,"count":4,"type":"VEC3","name":"accessorNormals"},{"bufferView":3,"byteOffset":17760,"componentType":5126,"count":4,"type":"VEC2","name":"accessorUVs"},{"bufferView":0,"byteOffset":8388,"componentType":5123,"count":6,"type":"SCALAR","name":"accessorIndices"},{"bufferView":1,"byteOffset":53376,"componentType":5126,"count":4,"max":[0.005,0.0,0.005],"min":[-0.005,0.0,-0.0131412381],"type":"VEC3","name":"accessorPositions"},{"bufferView":2,"byteOffset":35584,"componentType":5126,"count":4,"type":"VEC4","name":"accessorTangents"},{"bufferView":1,"byteOffset":53424,"componentType":5126,"count":4,"type":"VEC3","name":"accessorNormals"},{"bufferView":3,"byteOffset":17792,"componentType":5126,"count":4,"type":"VEC2","name":"accessorUVs"},{"bufferView":0,"byteOffset":8400,"componentType":5123,"count":6,"type":"SCALAR","name":"accessorIndices"},{"bufferView":1,"byteOffset":53472,"componentType":5126,"count":4,"max":[0.005,0.0,0.005],"min":[-0.005,0.0,-0.0131412381],"type":"VEC3","name":"accessorPositions"},{"bufferView":2,"byteOffset":35648,"componentType":5126,"count":4,"type":"VEC4","name":"accessorTangents"},{"bufferView":1,"byteOffset":53520,"componentType":5126,"count":4,"type":"VEC3","name":"accessorNormals"},{"bufferView":3,"byteOffset":17824,"componentType":5126,"count":4,"type":"VEC2","name":"accessorUVs"},{"bufferView":0,"byteOffset":8412,"componentType":5123,"count":6,"type":"SCALAR","name":"accessorIndices"},{"bufferView":1,"byteOffset":53568,"componentType":5126,"count":4,"max":[0.005,0.0,0.005],"min":[-0.005,0.0,-0.0131412381],"type":"VEC3","name":"accessorPositions"},{"bufferView":2,"byteOffset":35712,"componentType":5126,"count":4,"type":"VEC4","name":"accessorTangents"},{"bufferView":1,"byteOffset":53616,"componentType":5126,"count":4,"type":"VEC3","name":"accessorNormals"},{"bufferView":3,"byteOffset":17856,"componentType":5126,"count":4,"type":"VEC2","name":"accessorUVs"},{"bufferView":0,"byteOffset":8424,"componentType":5123,"count":6,"type":"SCALAR","name":"accessorIndices"},{"bufferView":1,"byteOffset":53664,"componentType":5126,"count":4,"max":[0.005,0.0,0.005],"min":[-0.005,0.0,-0.0131412381],"type":"VEC3","name":"accessorPositions"},{"bufferView":2,"byteOffset":35776,"componentType":5126,"count":4,"type":"VEC4","name":"accessorTangents"},{"bufferView":1,"byteOffset":53712,"componentType":5126,"count":4,"type":"VEC3","name":"accessorNormals"},{"bufferView":3,"byteOffset":17888,"componentType":5126,"count":4,"type":"VEC2","name":"accessorUVs"},{"bufferView":0,"byteOffset":8436,"componentType":5123,"count":6,"type":"SCALAR","name":"accessorIndices"},{"bufferView":1,"byteOffset":53760,"componentType":5126,"count":4,"max":[0.005,0.0,0.005],"min":[-0.005,0.0,-0.0131412381],"type":"VEC3","name":"accessorPositions"},{"bufferView":2,"byteOffset":35840,"componentType":5126,"count":4,"type":"VEC4","name":"accessorTangents"},{"bufferView":1,"byteOffset":53808,"componentType":5126,"count":4,"type":"VEC3","name":"accessorNormals"},{"bufferView":3,"byteOffset":17920,"componentType":5126,"count":4,"type":"VEC2","name":"accessorUVs"},{"bufferView":0,"byteOffset":8448,"componentType":5123,"count":12,"type":"SCALAR","name":"accessorIndices"},{"bufferView":1,"byteOffset":53856,"componentType":5126,"count":6,"max":[0.005,0.009035391,0.005],"min":[-0.005,0.0,-0.005],"type":"VEC3","name":"accessorPositions"},{"bufferView":2,"byteOffset":35904,"componentType":5126,"count":6,"type":"VEC4","name":"accessorTangents"},{"bufferView":1,"byteOffset":53928,"componentType":5126,"count":6,"type":"VEC3","name":"accessorNormals"},{"bufferView":3,"byteOffset":17952,"componentType":5126,"count":6,"type":"VEC2","name":"accessorUVs"},{"bufferView":0,"byteOffset":8472,"componentType":5123,"count":12,"type":"SCALAR","name":"accessorIndices"},{"bufferView":1,"byteOffset":54000,"componentType":5126,"count":6,"max":[0.005,0.009035391,0.005],"min":[-0.005,0.0,-0.005],"type":"VEC3","name":"accessorPositions"},{"bufferView":2,"byteOffset":36000,"componentType":5126,"count":6,"type":"VEC4","name":"accessorTangents"},{"bufferView":1,"byteOffset":54072,"componentType":5126,"count":6,"type":"VEC3","name":"accessorNormals"},{"bufferView":3,"byteOffset":18000,"componentType":5126,"count":6,"type":"VEC2","name":"accessorUVs"},{"bufferView":0,"byteOffset":8496,"componentType":5123,"count":120,"type":"SCALAR","name":"accessorIndices"},{"bufferView":1,"byteOffset":54144,"componentType":5126,"count":58,"max":[0.00636538351,0.0122626051,0.00505185174],"min":[-0.00636538351,-0.005,-0.005],"type":"VEC3","name":"accessorPositions"},{"bufferView":2,"byteOffset":36096,"componentType":5126,"count":58,"type":"VEC4","name":"accessorTangents"},{"bufferView":1,"byteOffset":54840,"componentType":5126,"count":58,"type":"VEC3","name":"accessorNormals"},{"bufferView":3,"byteOffset":18048,"componentType":5126,"count":58,"type":"VEC2","name":"accessorUVs"},{"bufferView":0,"byteOffset":8736,"componentType":5123,"count":12,"type":"SCALAR","name":"accessorIndices"},{"bufferView":1,"byteOffset":55536,"componentType":5126,"count":6,"max":[0.005,0.009035391,0.005],"min":[-0.005,0.0,-0.005],"type":"VEC3","name":"accessorPositions"},{"bufferView":2,"byteOffset":37024,"componentType":5126,"count":6,"type":"VEC4","name":"accessorTangents"},{"bufferView":1,"byteOffset":55608,"componentType":5126,"count":6,"type":"VEC3","name":"accessorNormals"},{"bufferView":3,"byteOffset":18512,"componentType":5126,"count":6,"type":"VEC2","name":"accessorUVs"},{"bufferView":0,"byteOffset":8760,"componentType":5123,"count":12,"type":"SCALAR","name":"accessorIndices"},{"bufferView":1,"byteOffset":55680,"componentType":5126,"count":6,"max":[0.005,0.009035391,0.005],"min":[-0.005,0.0,-0.005],"type":"VEC3","name":"accessorPositions"},{"bufferView":2,"byteOffset":37120,"componentType":5126,"count":6,"type":"VEC4","name":"accessorTangents"},{"bufferView":1,"byteOffset":55752,"componentType":5126,"count":6,"type":"VEC3","name":"accessorNormals"},{"bufferView":3,"byteOffset":18560,"componentType":5126,"count":6,"type":"VEC2","name":"accessorUVs"},{"bufferView":0,"byteOffset":8784,"componentType":5123,"count":12,"type":"SCALAR","name":"accessorIndices"},{"bufferView":1,"byteOffset":55824,"componentType":5126,"count":6,"max":[0.005,0.009035391,0.005],"min":[-0.005,0.0,-0.005],"type":"VEC3","name":"accessorPositions"},{"bufferView":2,"byteOffset":37216,"componentType":5126,"count":6,"type":"VEC4","name":"accessorTangents"},{"bufferView":1,"byteOffset":55896,"componentType":5126,"count":6,"type":"VEC3","name":"accessorNormals"},{"bufferView":3,"byteOffset":18608,"componentType":5126,"count":6,"type":"VEC2","name":"accessorUVs"},{"bufferView":0,"byteOffset":8808,"componentType":5123,"count":12,"type":"SCALAR","name":"accessorIndices"},{"bufferView":1,"byteOffset":55968,"componentType":5126,"count":6,"max":[0.005,0.009035391,0.005],"min":[-0.005,0.0,-0.005],"type":"VEC3","name":"accessorPositions"},{"bufferView":2,"byteOffset":37312,"componentType":5126,"count":6,"type":"VEC4","name":"accessorTangents"},{"bufferView":1,"byteOffset":56040,"componentType":5126,"count":6,"type":"VEC3","name":"accessorNormals"},{"bufferView":3,"byteOffset":18656,"componentType":5126,"count":6,"type":"VEC2","name":"accessorUVs"},{"bufferView":0,"byteOffset":8832,"componentType":5123,"count":12,"type":"SCALAR","name":"accessorIndices"},{"bufferView":1,"byteOffset":56112,"componentType":5126,"count":6,"max":[0.005,0.009035391,0.005],"min":[-0.005,0.0,-0.005],"type":"VEC3","name":"accessorPositions"},{"bufferView":2,"byteOffset":37408,"componentType":5126,"count":6,"type":"VEC4","name":"accessorTangents"},{"bufferView":1,"byteOffset":56184,"componentType":5126,"count":6,"type":"VEC3","name":"accessorNormals"},{"bufferView":3,"byteOffset":18704,"componentType":5126,"count":6,"type":"VEC2","name":"accessorUVs"},{"bufferView":0,"byteOffset":8856,"componentType":5123,"count":12,"type":"SCALAR","name":"accessorIndices"},{"bufferView":1,"byteOffset":56256,"componentType":5126,"count":6,"max":[0.005,0.009035391,0.005],"min":[-0.005,0.0,-0.005],"type":"VEC3","name":"accessorPositions"},{"bufferView":2,"byteOffset":37504,"componentType":5126,"count":6,"type":"VEC4","name":"accessorTangents"},{"bufferView":1,"byteOffset":56328,"componentType":5126,"count":6,"type":"VEC3","name":"accessorNormals"},{"bufferView":3,"byteOffset":18752,"componentType":5126,"count":6,"type":"VEC2","name":"accessorUVs"},{"bufferView":0,"byteOffset":8880,"componentType":5123,"count":12,"type":"SCALAR","name":"accessorIndices"},{"bufferView":1,"byteOffset":56400,"componentType":5126,"count":6,"max":[0.005,0.009035391,0.005],"min":[-0.005,0.0,-0.005],"type":"VEC3","name":"accessorPositions"},{"bufferView":2,"byteOffset":37600,"componentType":5126,"count":6,"type":"VEC4","name":"accessorTangents"},{"bufferView":1,"byteOffset":56472,"componentType":5126,"count":6,"type":"VEC3","name":"accessorNormals"},{"bufferView":3,"byteOffset":18800,"componentType":5126,"count":6,"type":"VEC2","name":"accessorUVs"},{"bufferView":0,"byteOffset":8904,"componentType":5123,"count":12,"type":"SCALAR","name":"accessorIndices"},{"bufferView":1,"byteOffset":56544,"componentType":5126,"count":6,"max":[0.005,0.009035391,0.005],"min":[-0.005,0.0,-0.005],"type":"VEC3","name":"accessorPositions"},{"bufferView":2,"byteOffset":37696,"componentType":5126,"count":6,"type":"VEC4","name":"accessorTangents"},{"bufferView":1,"byteOffset":56616,"componentType":5126,"count":6,"type":"VEC3","name":"accessorNormals"},{"bufferView":3,"byteOffset":18848,"componentType":5126,"count":6,"type":"VEC2","name":"accessorUVs"},{"bufferView":0,"byteOffset":8928,"componentType":5123,"count":12,"type":"SCALAR","name":"accessorIndices"},{"bufferView":1,"byteOffset":56688,"componentType":5126,"count":6,"max":[0.005,0.009035391,0.005],"min":[-0.005,0.0,-0.005],"type":"VEC3","name":"accessorPositions"},{"bufferView":2,"byteOffset":37792,"componentType":5126,"count":6,"type":"VEC4","name":"accessorTangents"},{"bufferView":1,"byteOffset":56760,"componentType":5126,"count":6,"type":"VEC3","name":"accessorNormals"},{"bufferView":3,"byteOffset":18896,"componentType":5126,"count":6,"type":"VEC2","name":"accessorUVs"},{"bufferView":0,"byteOffset":8952,"componentType":5123,"count":12,"type":"SCALAR","name":"accessorIndices"},{"bufferView":1,"byteOffset":56832,"componentType":5126,"count":6,"max":[0.005,0.009035391,0.005],"min":[-0.005,0.0,-0.005],"type":"VEC3","name":"accessorPositions"},{"bufferView":2,"byteOffset":37888,"componentType":5126,"count":6,"type":"VEC4","name":"accessorTangents"},{"bufferView":1,"byteOffset":56904,"componentType":5126,"count":6,"type":"VEC3","name":"accessorNormals"},{"bufferView":3,"byteOffset":18944,"componentType":5126,"count":6,"type":"VEC2","name":"accessorUVs"},{"bufferView":0,"byteOffset":8976,"componentType":5123,"count":12,"type":"SCALAR","name":"accessorIndices"},{"bufferView":1,"byteOffset":56976,"componentType":5126,"count":6,"max":[0.005,0.009035391,0.005],"min":[-0.005,0.0,-0.005],"type":"VEC3","name":"accessorPositions"},{"bufferView":2,"byteOffset":37984,"componentType":5126,"count":6,"type":"VEC4","name":"accessorTangents"},{"bufferView":1,"byteOffset":57048,"componentType":5126,"count":6,"type":"VEC3","name":"accessorNormals"},{"bufferView":3,"byteOffset":18992,"componentType":5126,"count":6,"type":"VEC2","name":"accessorUVs"},{"bufferView":0,"byteOffset":9000,"componentType":5123,"count":6,"type":"SCALAR","name":"accessorIndices"},{"bufferView":1,"byteOffset":57120,"componentType":5126,"count":4,"max":[0.005,0.0,0.005],"min":[-0.005,0.0,-0.0131412381],"type":"VEC3","name":"accessorPositions"},{"bufferView":2,"byteOffset":38080,"componentType":5126,"count":4,"type":"VEC4","name":"accessorTangents"},{"bufferView":1,"byteOffset":57168,"componentType":5126,"count":4,"type":"VEC3","name":"accessorNormals"},{"bufferView":3,"byteOffset":19040,"componentType":5126,"count":4,"type":"VEC2","name":"accessorUVs"},{"bufferView":0,"byteOffset":9012,"componentType":5123,"count":6,"type":"SCALAR","name":"accessorIndices"},{"bufferView":1,"byteOffset":57216,"componentType":5126,"count":4,"max":[0.005,0.0,0.005],"min":[-0.005,0.0,-0.0131412381],"type":"VEC3","name":"accessorPositions"},{"bufferView":2,"byteOffset":38144,"componentType":5126,"count":4,"type":"VEC4","name":"accessorTangents"},{"bufferView":1,"byteOffset":57264,"componentType":5126,"count":4,"type":"VEC3","name":"accessorNormals"},{"bufferView":3,"byteOffset":19072,"componentType":5126,"count":4,"type":"VEC2","name":"accessorUVs"},{"bufferView":0,"byteOffset":9024,"componentType":5123,"count":6,"type":"SCALAR","name":"accessorIndices"},{"bufferView":1,"byteOffset":57312,"componentType":5126,"count":4,"max":[0.005,0.0,0.005],"min":[-0.005,0.0,-0.0131412381],"type":"VEC3","name":"accessorPositions"},{"bufferView":2,"byteOffset":38208,"componentType":5126,"count":4,"type":"VEC4","name":"accessorTangents"},{"bufferView":1,"byteOffset":57360,"componentType":5126,"count":4,"type":"VEC3","name":"accessorNormals"},{"bufferView":3,"byteOffset":19104,"componentType":5126,"count":4,"type":"VEC2","name":"accessorUVs"},{"bufferView":0,"byteOffset":9036,"componentType":5123,"count":6,"type":"SCALAR","name":"accessorIndices"},{"bufferView":1,"byteOffset":57408,"componentType":5126,"count":4,"max":[0.005,0.0,0.005],"min":[-0.005,0.0,-0.0131412381],"type":"VEC3","name":"accessorPositions"},{"bufferView":2,"byteOffset":38272,"componentType":5126,"count":4,"type":"VEC4","name":"accessorTangents"},{"bufferView":1,"byteOffset":57456,"componentType":5126,"count":4,"type":"VEC3","name":"accessorNormals"},{"bufferView":3,"byteOffset":19136,"componentType":5126,"count":4,"type":"VEC2","name":"accessorUVs"},{"bufferView":0,"byteOffset":9048,"componentType":5123,"count":6,"type":"SCALAR","name":"accessorIndices"},{"bufferView":1,"byteOffset":57504,"componentType":5126,"count":4,"max":[0.005,0.0,0.005],"min":[-0.005,0.0,-0.0131412381],"type":"VEC3","name":"accessorPositions"},{"bufferView":2,"byteOffset":38336,"componentType":5126,"count":4,"type":"VEC4","name":"accessorTangents"},{"bufferView":1,"byteOffset":57552,"componentType":5126,"count":4,"type":"VEC3","name":"accessorNormals"},{"bufferView":3,"byteOffset":19168,"componentType":5126,"count":4,"type":"VEC2","name":"accessorUVs"},{"bufferView":0,"byteOffset":9060,"componentType":5123,"count":120,"type":"SCALAR","name":"accessorIndices"},{"bufferView":1,"byteOffset":57600,"componentType":5126,"count":58,"max":[0.00636538351,0.0122626051,0.005],"min":[-0.00636538351,-0.005,-0.005],"type":"VEC3","name":"accessorPositions"},{"bufferView":2,"byteOffset":38400,"componentType":5126,"count":58,"type":"VEC4","name":"accessorTangents"},{"bufferView":1,"byteOffset":58296,"componentType":5126,"count":58,"type":"VEC3","name":"accessorNormals"},{"bufferView":3,"byteOffset":19200,"componentType":5126,"count":58,"type":"VEC2","name":"accessorUVs"},{"bufferView":0,"byteOffset":9300,"componentType":5123,"count":174,"type":"SCALAR","name":"accessorIndices"},{"bufferView":1,"byteOffset":58992,"componentType":5126,"count":116,"max":[-0.06713055,0.00964115,-0.04329515],"min":[-0.07399992,0.00602859026,-0.0506572276],"type":"VEC3","name":"accessorPositions"},{"bufferView":2,"byteOffset":39328,"componentType":5126,"count":116,"type":"VEC4","name":"accessorTangents"},{"bufferView":1,"byteOffset":60384,"componentType":5126,"count":116,"type":"VEC3","name":"accessorNormals"},{"bufferView":3,"byteOffset":19664,"componentType":5126,"count":116,"type":"VEC2","name":"accessorUVs"},{"bufferView":0,"byteOffset":9648,"componentType":5123,"count":120,"type":"SCALAR","name":"accessorIndices"},{"bufferView":1,"byteOffset":61776,"componentType":5126,"count":58,"max":[0.00636538351,0.0122626051,0.005],"min":[-0.00636538351,-0.005,-0.005],"type":"VEC3","name":"accessorPositions"},{"bufferView":2,"byteOffset":41184,"componentType":5126,"count":58,"type":"VEC4","name":"accessorTangents"},{"bufferView":1,"byteOffset":62472,"componentType":5126,"count":58,"type":"VEC3","name":"accessorNormals"},{"bufferView":3,"byteOffset":20592,"componentType":5126,"count":58,"type":"VEC2","name":"accessorUVs"},{"bufferView":0,"byteOffset":9888,"componentType":5123,"count":120,"type":"SCALAR","name":"accessorIndices"},{"bufferView":1,"byteOffset":63168,"componentType":5126,"count":58,"max":[0.00636538351,0.0122626051,0.005],"min":[-0.00636538351,-0.005,-0.005],"type":"VEC3","name":"accessorPositions"},{"bufferView":2,"byteOffset":42112,"componentType":5126,"count":58,"type":"VEC4","name":"accessorTangents"},{"bufferView":1,"byteOffset":63864,"componentType":5126,"count":58,"type":"VEC3","name":"accessorNormals"},{"bufferView":3,"byteOffset":21056,"componentType":5126,"count":58,"type":"VEC2","name":"accessorUVs"},{"bufferView":0,"byteOffset":10128,"componentType":5123,"count":120,"type":"SCALAR","name":"accessorIndices"},{"bufferView":1,"byteOffset":64560,"componentType":5126,"count":58,"max":[0.00636538351,0.0122626051,0.005],"min":[-0.00636538351,-0.005,-0.005],"type":"VEC3","name":"accessorPositions"},{"bufferView":2,"byteOffset":43040,"componentType":5126,"count":58,"type":"VEC4","name":"accessorTangents"},{"bufferView":1,"byteOffset":65256,"componentType":5126,"count":58,"type":"VEC3","name":"accessorNormals"},{"bufferView":3,"byteOffset":21520,"componentType":5126,"count":58,"type":"VEC2","name":"accessorUVs"},{"bufferView":0,"byteOffset":10368,"componentType":5123,"count":120,"type":"SCALAR","name":"accessorIndices"},{"bufferView":1,"byteOffset":65952,"componentType":5126,"count":58,"max":[0.00636538351,0.0122626051,0.005],"min":[-0.00636538351,-0.005,-0.005],"type":"VEC3","name":"accessorPositions"},{"bufferView":2,"byteOffset":43968,"componentType":5126,"count":58,"type":"VEC4","name":"accessorTangents"},{"bufferView":1,"byteOffset":66648,"componentType":5126,"count":58,"type":"VEC3","name":"accessorNormals"},{"bufferView":3,"byteOffset":21984,"componentType":5126,"count":58,"type":"VEC2","name":"accessorUVs"},{"bufferView":0,"byteOffset":10608,"componentType":5123,"count":6,"type":"SCALAR","name":"accessorIndices"},{"bufferView":1,"byteOffset":67344,"componentType":5126,"count":4,"max":[0.005,0.0,0.005],"min":[-0.005,0.0,-0.0131412381],"type":"VEC3","name":"accessorPositions"},{"bufferView":2,"byteOffset":44896,"componentType":5126,"count":4,"type":"VEC4","name":"accessorTangents"},{"bufferView":1,"byteOffset":67392,"componentType":5126,"count":4,"type":"VEC3","name":"accessorNormals"},{"bufferView":3,"byteOffset":22448,"componentType":5126,"count":4,"type":"VEC2","name":"accessorUVs"},{"bufferView":0,"byteOffset":10620,"componentType":5123,"count":96,"type":"SCALAR","name":"accessorIndices"},{"bufferView":1,"byteOffset":67440,"componentType":5126,"count":48,"max":[-0.102414608,0.029192796,0.07826558],"min":[-0.110688627,0.004831934,0.07714029],"type":"VEC3","name":"accessorPositions"},{"bufferView":2,"byteOffset":44960,"componentType":5126,"count":48,"type":"VEC4","name":"accessorTangents"},{"bufferView":1,"byteOffset":68016,"componentType":5126,"count":48,"type":"VEC3","name":"accessorNormals"},{"bufferView":3,"byteOffset":22480,"componentType":5126,"count":48,"type":"VEC2","name":"accessorUVs"},{"bufferView":0,"byteOffset":10812,"componentType":5123,"count":96,"type":"SCALAR","name":"accessorIndices"},{"bufferView":1,"byteOffset":68592,"componentType":5126,"count":48,"max":[-0.102414608,0.029192796,0.07826558],"min":[-0.110688627,0.004831934,0.07714029],"type":"VEC3","name":"accessorPositions"},{"bufferView":2,"byteOffset":45728,"componentType":5126,"count":48,"type":"VEC4","name":"accessorTangents"},{"bufferView":1,"byteOffset":69168,"componentType":5126,"count":48,"type":"VEC3","name":"accessorNormals"},{"bufferView":3,"byteOffset":22864,"componentType":5126,"count":48,"type":"VEC2","name":"accessorUVs"},{"bufferView":0,"byteOffset":11004,"componentType":5123,"count":96,"type":"SCALAR","name":"accessorIndices"},{"bufferView":1,"byteOffset":69744,"componentType":5126,"count":48,"max":[-0.102414608,0.029192796,0.07826558],"min":[-0.110688627,0.004831934,0.07714029],"type":"VEC3","name":"accessorPositions"},{"bufferView":2,"byteOffset":46496,"componentType":5126,"count":48,"type":"VEC4","name":"accessorTangents"},{"bufferView":1,"byteOffset":70320,"componentType":5126,"count":48,"type":"VEC3","name":"accessorNormals"},{"bufferView":3,"byteOffset":23248,"componentType":5126,"count":48,"type":"VEC2","name":"accessorUVs"},{"bufferView":0,"byteOffset":11196,"componentType":5123,"count":96,"type":"SCALAR","name":"accessorIndices"},{"bufferView":1,"byteOffset":70896,"componentType":5126,"count":48,"max":[-0.102414608,0.029192796,0.07826558],"min":[-0.110688627,0.004831934,0.07714029],"type":"VEC3","name":"accessorPositions"},{"bufferView":2,"byteOffset":47264,"componentType":5126,"count":48,"type":"VEC4","name":"accessorTangents"},{"bufferView":1,"byteOffset":71472,"componentType":5126,"count":48,"type":"VEC3","name":"accessorNormals"},{"bufferView":3,"byteOffset":23632,"componentType":5126,"count":48,"type":"VEC2","name":"accessorUVs"}],"bufferViews":[{"buffer":0,"byteLength":11388,"name":"bufferViewScalar"},{"buffer":0,"byteOffset":11388,"byteLength":72048,"byteStride":12,"name":"bufferViewFloatVec3"},{"buffer":0,"byteOffset":83436,"byteLength":48032,"byteStride":16,"name":"bufferViewFloatVec4"},{"buffer":0,"byteOffset":131468,"byteLength":24016,"byteStride":8,"name":"bufferViewFloatVec2"}],"buffers":[{"uri":"stad_3.bin","byteLength":155484}],"materials":[{"pbrMetallicRoughness":{"baseColorTexture":{"index":0},"metallicFactor":0.0,"roughnessFactor":0.450053632},"name":"lambert10"},{"pbrMetallicRoughness":{"baseColorTexture":{"index":1},"metallicFactor":0.0,"roughnessFactor":0.450053632},"name":"lambert21"},{"pbrMetallicRoughness":{"baseColorTexture":{"index":2},"metallicFactor":0.0,"roughnessFactor":0.450053632},"name":"lambert15"},{"pbrMetallicRoughness":{"baseColorTexture":{"index":3},"metallicFactor":0.0,"roughnessFactor":0.450053632},"name":"lambert28"},{"pbrMetallicRoughness":{"baseColorTexture":{"index":4},"metallicFactor":0.0,"roughnessFactor":0.450053632},"name":"lambert29"},{"pbrMetallicRoughness":{"baseColorTexture":{"index":5},"metallicFactor":0.0,"roughnessFactor":0.450053632},"name":"lambert11"},{"pbrMetallicRoughness":{"baseColorTexture":{"index":6},"metallicFactor":0.0,"roughnessFactor":0.450053632},"name":"lambert14"},{"pbrMetallicRoughness":{"baseColorTexture":{"index":7},"metallicFactor":0.0,"roughnessFactor":0.450053632},"name":"lambert12"},{"pbrMetallicRoughness":{"baseColorTexture":{"index":8},"metallicFactor":0.0,"roughnessFactor":0.450053632},"name":"lambert16"},{"pbrMetallicRoughness":{"baseColorTexture":{"index":9},"metallicFactor":0.0,"roughnessFactor":0.450053632},"name":"glasskiosk1:lambert6SG1"},{"pbrMetallicRoughness":{"baseColorTexture":{"index":10},"metallicFactor":0.0,"roughnessFactor":0.450053632},"name":"lambert18"},{"pbrMetallicRoughness":{"baseColorTexture":{"index":11},"metallicFactor":0.0,"roughnessFactor":0.450053632},"name":"lambert19"},{"pbrMetallicRoughness":{"baseColorTexture":{"index":12},"metallicFactor":0.0,"roughnessFactor":0.450053632},"name":"lambert20"},{"pbrMetallicRoughness":{"baseColorTexture":{"index":13},"metallicFactor":0.0,"roughnessFactor":0.450053632},"name":"lambert23"},{"pbrMetallicRoughness":{"baseColorTexture":{"index":14},"metallicFactor":0.0,"roughnessFactor":0.450053632},"name":"lambert26"}],"textures":[{"sampler":0,"source":0,"name":"stad_ground_diffuse2.jpg"},{"sampler":0,"source":1,"name":"stonewall_diffuse_256.jpg"},{"sampler":0,"source":2,"name":"house_small_diffuse_256.jpg"},{"sampler":0,"source":3,"name":"korvkiosk_diffuse_256.jpg"},{"sampler":0,"source":4,"name":"bord_diffuse_256.jpg"},{"sampler":0,"source":5,"name":"house_mid_diffuse_256.jpg"},{"sampler":0,"source":6,"name":"house_mid_diffuse_ver2_256.jpg"},{"sampler":0,"source":7,"name":"house_small_diffuse_ver2_256.jpg"},{"sampler":0,"source":8,"name":"house_small_diffuse_ver3_256.jpg"},{"sampler":0,"source":9,"name":"glasskiosk_diffuse_256.jpg"},{"sampler":0,"source":10,"name":"bussstop_diffuse_256.jpg"},{"sampler":0,"source":11,"name":"house_big_diffuse_256.jpg"},{"sampler":0,"source":12,"name":"skylt_diffuse_256.jpg"},{"sampler":0,"source":13,"name":"staket_diffuse_256.png"},{"sampler":0,"source":14,"name":"stopgrej_diffuse_256.jpg"}],"images":[{"uri":"stad_ground_diffuse2.jpg"},{"uri":"stonewall_diffuse_256.jpg"},{"uri":"house_small_diffuse_256.jpg"},{"uri":"korvkiosk_diffuse_256.jpg"},{"uri":"bord_diffuse_256.jpg"},{"uri":"house_mid_diffuse_256.jpg"},{"uri":"house_mid_diffuse_ver2_256.jpg"},{"uri":"house_small_diffuse_ver2_256.jpg"},{"uri":"house_small_diffuse_ver3_256.jpg"},{"uri":"glasskiosk_diffuse_256.jpg"},{"uri":"bussstop_diffuse_256.jpg"},{"uri":"house_big_diffuse_256.jpg"},{"uri":"skylt_diffuse_256.jpg"},{"uri":"staket_diffuse_256.png"},{"uri":"stopgrej_diffuse_256.jpg"}],"samplers":[{"magFilter":9729,"minFilter":9987}]}