{"asset":{"version":"2.0","generator":"babylon.js glTF exporter for Maya 2018 v20200813.4"},"scene":0,"scenes":[{"nodes":[0,22]}],"nodes":[{"children":[1,12,17],"translation":[-0.000305166934,0.00639398675,-0.000237270389],"rotation":[0.0,0.0,-0.04721132,0.9988849],"name":"spine1"},{"children":[2],"translation":[0.0,0.00290297135,3.04914211E-05],"rotation":[-0.06078176,0.05568297,0.6680847,0.7395052],"name":"spine2"},{"children":[3,6,9],"translation":[0.00302906265,2.84975158E-05,-0.000162620912],"rotation":[0.9999587,0.009089782,5.56588638E-19,6.122981E-17],"name":"spine3"},{"children":[4],"translation":[0.001872049,2.45067076E-05,7.239015E-20],"rotation":[0.9515652,-0.0114265289,0.302211732,0.055327557],"name":"head1"},{"children":[5],"translation":[0.00683664624,3.06351722E-05,0.000376060867],"rotation":[0.0,0.0,-0.7060181,0.7081938],"name":"head2"},{"mesh":0,"translation":[4.76278728E-05,-0.00252378779,6.137816E-05],"scale":[0.4067596,0.432241946,0.4067596],"name":"hair"},{"children":[7],"translation":[0.0009472975,-0.00262749,-3.46944675E-19],"rotation":[0.004189788,0.0730844438,-0.0853934,0.9936544],"name":"left_arm1"},{"children":[8],"translation":[0.00234284881,-0.0007283191,-2.87188578E-19],"rotation":[0.0,0.0,0.211366445,0.977406859],"name":"left_arm2"},{"translation":[0.00365118287,7.420128E-06,-0.000142727775],"rotation":[-0.2820583,0.020571962,0.7257654,0.627124],"name":"left_arm3"},{"children":[10],"translation":[0.0008879952,0.00264811539,1.27867661E-10],"rotation":[0.72722286,-0.101711564,-0.09246805,0.6724964],"scale":[1.0,1.0,0.99999994],"name":"right_arm1"},{"children":[11],"translation":[-0.00234284,0.000728299958,-2.08166812E-19],"rotation":[0.0,0.0,0.00462948065,0.9999893],"name":"right_arm2"},{"translation":[-0.003651185,-7.394498E-06,0.000142728],"rotation":[-0.07861286,0.197001547,0.6392152,0.739198446],"scale":[0.9999998,0.99999994,1.0],"name":"right_arm3"},{"children":[13],"translation":[-0.0014299266,-0.000115655566,-0.0001013618],"rotation":[-0.146073833,-0.10059116,0.0703673139,0.9816274],"name":"left_leg1"},{"children":[14],"translation":[1.3960024E-06,-0.00293224864,1.945858E-05],"rotation":[0.3038571,-0.000253675418,-0.00125139032,0.952716768],"scale":[0.99999994,1.0,1.0],"name":"left_knee"},{"children":[15],"translation":[0.0,-0.00297919754,-0.000325222936],"rotation":[-0.160078615,-0.03982415,-0.0388474949,0.985535264],"scale":[1.0,0.99999994,1.0],"name":"left_ankle"},{"children":[16],"translation":[0.0,-0.000626887835,0.000491171668],"rotation":[5.5128945E-05,-0.008664139,0.00156983791,0.999961257],"scale":[0.99999994,0.99999994,1.0],"name":"left_foot"},{"translation":[0.0,-0.000278859952,0.000970022054],"name":"left_toe"},{"children":[18],"translation":[0.0014299294,-0.000115659554,-0.00010136162],"rotation":[-0.961154044,-0.1441983,0.0966533944,-0.2145877],"scale":[1.0,1.00000012,1.0],"name":"right_leg1"},{"children":[19],"translation":[-1.4E-06,0.00293224,-1.9458E-05],"rotation":[0.397165745,-0.0005001048,-0.00161846285,0.917745352],"name":"right_knee"},{"children":[20],"translation":[0.0,0.002979202,0.000325222965],"rotation":[-0.18340075,0.0104308659,0.0489298925,0.9817644],"scale":[0.99999994,1.0,1.0],"name":"right_ankle"},{"children":[21],"translation":[0.0,0.000626887952,-0.000491172],"rotation":[0.000495624961,-0.0259138439,0.00468874956,0.9996531],"scale":[1.0,0.99999994,1.0],"name":"right_foot"},{"translation":[0.0,0.000278859981,-0.000970022],"name":"right_toe"},{"skin":0,"mesh":1,"name":"kid"}],"meshes":[{"primitives":[{"attributes":{"POSITION":1,"TANGENT":2,"NORMAL":3,"TEXCOORD_0":4},"indices":0,"material":0}],"name":"hair"},{"primitives":[{"attributes":{"POSITION":6,"TANGENT":7,"NORMAL":8,"TEXCOORD_0":9,"JOINTS_0":10,"WEIGHTS_0":11},"indices":5,"material":1}],"name":"kid"}],"accessors":[{"bufferView":0,"componentType":5123,"count":246,"type":"SCALAR","name":"accessorIndices"},{"bufferView":1,"componentType":5126,"count":65,"max":[0.01,0.00999999,0.009999997],"min":[-0.009999997,-0.0114143444,-0.009999999],"type":"VEC3","name":"accessorPositions"},{"bufferView":2,"componentType":5126,"count":65,"type":"VEC4","name":"accessorTangents"},{"bufferView":1,"byteOffset":780,"componentType":5126,"count":65,"type":"VEC3","name":"accessorNormals"},{"bufferView":3,"componentType":5126,"count":65,"type":"VEC2","name":"accessorUVs"},{"bufferView":0,"byteOffset":492,"componentType":5123,"count":2124,"type":"SCALAR","name":"accessorIndices"},{"bufferView":1,"byteOffset":1560,"componentType":5126,"count":627,"max":[0.00597156631,0.0214983486,0.002229933],"min":[-0.0038943605,-8.473201E-05,-0.0070531033],"type":"VEC3","name":"accessorPositions"},{"bufferView":2,"byteOffset":1040,"componentType":5126,"count":627,"type":"VEC4","name":"accessorTangents"},{"bufferView":1,"byteOffset":9084,"componentType":5126,"count":627,"type":"VEC3","name":"accessorNormals"},{"bufferView":3,"byteOffset":520,"componentType":5126,"count":627,"type":"VEC2","name":"accessorUVs"},{"bufferView":4,"componentType":5123,"count":627,"type":"VEC4","name":"accessorJoints"},{"bufferView":2,"byteOffset":11072,"componentType":5126,"count":627,"type":"VEC4","name":"accessorWeights"},{"bufferView":5,"componentType":5126,"count":21,"type":"MAT4","name":"accessorInverseBindMatrices"},{"bufferView":6,"componentType":5126,"count":45,"max":[8.291667],"min":[0.0],"type":"SCALAR","name":"accessorAnimationInput"},{"bufferView":7,"componentType":5126,"count":45,"type":"VEC4","name":"accessorAnimationRotations"},{"bufferView":6,"byteOffset":180,"componentType":5126,"count":27,"max":[8.291667],"min":[0.0],"type":"SCALAR","name":"accessorAnimationInput"},{"bufferView":8,"componentType":5126,"count":27,"type":"VEC3","name":"accessorAnimationPositions"},{"bufferView":6,"byteOffset":288,"componentType":5126,"count":26,"max":[8.291667],"min":[0.0],"type":"SCALAR","name":"accessorAnimationInput"},{"bufferView":7,"byteOffset":720,"componentType":5126,"count":26,"type":"VEC4","name":"accessorAnimationRotations"},{"bufferView":6,"byteOffset":392,"componentType":5126,"count":2,"max":[8.291667],"min":[0.0],"type":"SCALAR","name":"accessorAnimationInput"},{"bufferView":8,"byteOffset":324,"componentType":5126,"count":2,"type":"VEC3","name":"accessorAnimationPositions"},{"bufferView":6,"byteOffset":400,"componentType":5126,"count":2,"max":[8.291667],"min":[0.0],"type":"SCALAR","name":"accessorAnimationInput"},{"bufferView":7,"byteOffset":1136,"componentType":5126,"count":2,"type":"VEC4","name":"accessorAnimationRotations"},{"bufferView":6,"byteOffset":408,"componentType":5126,"count":2,"max":[8.291667],"min":[0.0],"type":"SCALAR","name":"accessorAnimationInput"},{"bufferView":8,"byteOffset":348,"componentType":5126,"count":2,"type":"VEC3","name":"accessorAnimationPositions"},{"bufferView":6,"byteOffset":416,"componentType":5126,"count":45,"max":[8.291667],"min":[0.0],"type":"SCALAR","name":"accessorAnimationInput"},{"bufferView":7,"byteOffset":1168,"componentType":5126,"count":45,"type":"VEC4","name":"accessorAnimationRotations"},{"bufferView":6,"byteOffset":596,"componentType":5126,"count":2,"max":[8.291667],"min":[0.0],"type":"SCALAR","name":"accessorAnimationInput"},{"bufferView":8,"byteOffset":372,"componentType":5126,"count":2,"type":"VEC3","name":"accessorAnimationPositions"},{"bufferView":6,"byteOffset":604,"componentType":5126,"count":2,"max":[8.291667],"min":[0.0],"type":"SCALAR","name":"accessorAnimationInput"},{"bufferView":7,"byteOffset":1888,"componentType":5126,"count":2,"type":"VEC4","name":"accessorAnimationRotations"},{"bufferView":6,"byteOffset":612,"componentType":5126,"count":2,"max":[8.291667],"min":[0.0],"type":"SCALAR","name":"accessorAnimationInput"},{"bufferView":8,"byteOffset":396,"componentType":5126,"count":2,"type":"VEC3","name":"accessorAnimationPositions"},{"bufferView":6,"byteOffset":620,"componentType":5126,"count":2,"max":[8.291667],"min":[0.0],"type":"SCALAR","name":"accessorAnimationInput"},{"bufferView":8,"byteOffset":420,"componentType":5126,"count":2,"type":"VEC3","name":"accessorAnimationScales"},{"bufferView":6,"byteOffset":628,"componentType":5126,"count":2,"max":[8.291667],"min":[0.0],"type":"SCALAR","name":"accessorAnimationInput"},{"bufferView":8,"byteOffset":444,"componentType":5126,"count":2,"type":"VEC3","name":"accessorAnimationPositions"},{"bufferView":6,"byteOffset":636,"componentType":5126,"count":42,"max":[8.291667],"min":[0.0],"type":"SCALAR","name":"accessorAnimationInput"},{"bufferView":8,"byteOffset":468,"componentType":5126,"count":42,"type":"VEC3","name":"accessorAnimationPositions"},{"bufferView":7,"byteOffset":1920,"componentType":5126,"count":42,"type":"VEC4","name":"accessorAnimationRotations"},{"bufferView":8,"byteOffset":972,"componentType":5126,"count":42,"type":"VEC3","name":"accessorAnimationScales"},{"bufferView":6,"byteOffset":804,"componentType":5126,"count":23,"max":[8.291667],"min":[0.0],"type":"SCALAR","name":"accessorAnimationInput"},{"bufferView":8,"byteOffset":1476,"componentType":5126,"count":23,"type":"VEC3","name":"accessorAnimationPositions"},{"bufferView":7,"byteOffset":2592,"componentType":5126,"count":23,"type":"VEC4","name":"accessorAnimationRotations"},{"bufferView":8,"byteOffset":1752,"componentType":5126,"count":23,"type":"VEC3","name":"accessorAnimationScales"},{"bufferView":6,"byteOffset":896,"componentType":5126,"count":45,"max":[8.291667],"min":[0.0],"type":"SCALAR","name":"accessorAnimationInput"},{"bufferView":8,"byteOffset":2028,"componentType":5126,"count":45,"type":"VEC3","name":"accessorAnimationPositions"},{"bufferView":7,"byteOffset":2960,"componentType":5126,"count":45,"type":"VEC4","name":"accessorAnimationRotations"},{"bufferView":8,"byteOffset":2568,"componentType":5126,"count":45,"type":"VEC3","name":"accessorAnimationScales"},{"bufferView":6,"byteOffset":1076,"componentType":5126,"count":23,"max":[8.291667],"min":[0.0],"type":"SCALAR","name":"accessorAnimationInput"},{"bufferView":8,"byteOffset":3108,"componentType":5126,"count":23,"type":"VEC3","name":"accessorAnimationPositions"},{"bufferView":7,"byteOffset":3680,"componentType":5126,"count":23,"type":"VEC4","name":"accessorAnimationRotations"},{"bufferView":8,"byteOffset":3384,"componentType":5126,"count":23,"type":"VEC3","name":"accessorAnimationScales"},{"bufferView":6,"byteOffset":1168,"componentType":5126,"count":23,"max":[8.291667],"min":[0.0],"type":"SCALAR","name":"accessorAnimationInput"},{"bufferView":8,"byteOffset":3660,"componentType":5126,"count":23,"type":"VEC3","name":"accessorAnimationPositions"},{"bufferView":7,"byteOffset":4048,"componentType":5126,"count":23,"type":"VEC4","name":"accessorAnimationRotations"},{"bufferView":8,"byteOffset":3936,"componentType":5126,"count":23,"type":"VEC3","name":"accessorAnimationScales"},{"bufferView":6,"byteOffset":1260,"componentType":5126,"count":23,"max":[8.291667],"min":[0.0],"type":"SCALAR","name":"accessorAnimationInput"},{"bufferView":8,"byteOffset":4212,"componentType":5126,"count":23,"type":"VEC3","name":"accessorAnimationPositions"},{"bufferView":7,"byteOffset":4416,"componentType":5126,"count":23,"type":"VEC4","name":"accessorAnimationRotations"},{"bufferView":8,"byteOffset":4488,"componentType":5126,"count":23,"type":"VEC3","name":"accessorAnimationScales"},{"bufferView":6,"byteOffset":1352,"componentType":5126,"count":45,"max":[8.291667],"min":[0.0],"type":"SCALAR","name":"accessorAnimationInput"},{"bufferView":8,"byteOffset":4764,"componentType":5126,"count":45,"type":"VEC3","name":"accessorAnimationPositions"},{"bufferView":7,"byteOffset":4784,"componentType":5126,"count":45,"type":"VEC4","name":"accessorAnimationRotations"},{"bufferView":8,"byteOffset":5304,"componentType":5126,"count":45,"type":"VEC3","name":"accessorAnimationScales"},{"bufferView":6,"byteOffset":1532,"componentType":5126,"count":45,"max":[8.291667],"min":[0.0],"type":"SCALAR","name":"accessorAnimationInput"},{"bufferView":8,"byteOffset":5844,"componentType":5126,"count":45,"type":"VEC3","name":"accessorAnimationPositions"},{"bufferView":7,"byteOffset":5504,"componentType":5126,"count":45,"type":"VEC4","name":"accessorAnimationRotations"},{"bufferView":8,"byteOffset":6384,"componentType":5126,"count":45,"type":"VEC3","name":"accessorAnimationScales"},{"bufferView":6,"byteOffset":1712,"componentType":5126,"count":45,"max":[8.291667],"min":[0.0],"type":"SCALAR","name":"accessorAnimationInput"},{"bufferView":8,"byteOffset":6924,"componentType":5126,"count":45,"type":"VEC3","name":"accessorAnimationPositions"},{"bufferView":7,"byteOffset":6224,"componentType":5126,"count":45,"type":"VEC4","name":"accessorAnimationRotations"},{"bufferView":8,"byteOffset":7464,"componentType":5126,"count":45,"type":"VEC3","name":"accessorAnimationScales"},{"bufferView":6,"byteOffset":1892,"componentType":5126,"count":45,"max":[8.291667],"min":[0.0],"type":"SCALAR","name":"accessorAnimationInput"},{"bufferView":8,"byteOffset":8004,"componentType":5126,"count":45,"type":"VEC3","name":"accessorAnimationPositions"},{"bufferView":7,"byteOffset":6944,"componentType":5126,"count":45,"type":"VEC4","name":"accessorAnimationRotations"},{"bufferView":8,"byteOffset":8544,"componentType":5126,"count":45,"type":"VEC3","name":"accessorAnimationScales"},{"bufferView":6,"byteOffset":2072,"componentType":5126,"count":45,"max":[8.291667],"min":[0.0],"type":"SCALAR","name":"accessorAnimationInput"},{"bufferView":8,"byteOffset":9084,"componentType":5126,"count":45,"type":"VEC3","name":"accessorAnimationPositions"},{"bufferView":7,"byteOffset":7664,"componentType":5126,"count":45,"type":"VEC4","name":"accessorAnimationRotations"},{"bufferView":8,"byteOffset":9624,"componentType":5126,"count":45,"type":"VEC3","name":"accessorAnimationScales"},{"bufferView":6,"byteOffset":2252,"componentType":5126,"count":45,"max":[8.291667],"min":[0.0],"type":"SCALAR","name":"accessorAnimationInput"},{"bufferView":8,"byteOffset":10164,"componentType":5126,"count":45,"type":"VEC3","name":"accessorAnimationPositions"},{"bufferView":7,"byteOffset":8384,"componentType":5126,"count":45,"type":"VEC4","name":"accessorAnimationRotations"},{"bufferView":8,"byteOffset":10704,"componentType":5126,"count":45,"type":"VEC3","name":"accessorAnimationScales"},{"bufferView":6,"byteOffset":2432,"componentType":5126,"count":45,"max":[8.291667],"min":[0.0],"type":"SCALAR","name":"accessorAnimationInput"},{"bufferView":8,"byteOffset":11244,"componentType":5126,"count":45,"type":"VEC3","name":"accessorAnimationPositions"},{"bufferView":7,"byteOffset":9104,"componentType":5126,"count":45,"type":"VEC4","name":"accessorAnimationRotations"},{"bufferView":8,"byteOffset":11784,"componentType":5126,"count":45,"type":"VEC3","name":"accessorAnimationScales"},{"bufferView":6,"byteOffset":2612,"componentType":5126,"count":44,"max":[8.291667],"min":[0.0],"type":"SCALAR","name":"accessorAnimationInput"},{"bufferView":8,"byteOffset":12324,"componentType":5126,"count":44,"type":"VEC3","name":"accessorAnimationPositions"},{"bufferView":7,"byteOffset":9824,"componentType":5126,"count":44,"type":"VEC4","name":"accessorAnimationRotations"},{"bufferView":8,"byteOffset":12852,"componentType":5126,"count":44,"type":"VEC3","name":"accessorAnimationScales"}],"bufferViews":[{"buffer":0,"byteLength":4740,"name":"bufferViewScalar"},{"buffer":0,"byteOffset":4740,"byteLength":16608,"byteStride":12,"name":"bufferViewFloatVec3"},{"buffer":0,"byteOffset":21348,"byteLength":21104,"byteStride":16,"name":"bufferViewFloatVec4"},{"buffer":0,"byteOffset":42452,"byteLength":5536,"byteStride":8,"name":"bufferViewFloatVec2"},{"buffer":0,"byteOffset":47988,"byteLength":5016,"byteStride":8,"name":"bufferViewUnsignedShortVec4"},{"buffer":0,"byteOffset":53004,"byteLength":1344,"name":"bufferViewFloatMat4"},{"buffer":0,"byteOffset":54348,"byteLength":2788,"name":"bufferViewAnimationFloatScalar"},{"buffer":0,"byteOffset":57136,"byteLength":10528,"name":"bufferViewAnimationFloatVec4"},{"buffer":0,"byteOffset":67664,"byteLength":13380,"name":"bufferViewAnimationFloatVec3"}],"buffers":[{"uri":"kid_wave_run.bin","byteLength":81044}],"materials":[{"pbrMetallicRoughness":{"baseColorTexture":{"index":0},"metallicFactor":0.0,"roughnessFactor":0.450053632},"name":"lambert3"},{"pbrMetallicRoughness":{"baseColorTexture":{"index":1},"metallicFactor":0.0,"roughnessFactor":0.450053632},"name":"lambert2"}],"textures":[{"sampler":0,"source":0,"name":"kid_hair_diffuse.png"},{"sampler":0,"source":1,"name":"kid_diffuse_2.jpg"}],"images":[{"uri":"kid_hair_diffuse.png"},{"uri":"kid_diffuse_2.jpg"}],"samplers":[{"magFilter":9729,"minFilter":9987}],"animations":[{"channels":[{"sampler":0,"target":{"node":0,"path":"rotation"}},{"sampler":1,"target":{"node":0,"path":"translation"}},{"sampler":2,"target":{"node":1,"path":"rotation"}},{"sampler":3,"target":{"node":1,"path":"translation"}},{"sampler":4,"target":{"node":2,"path":"rotation"}},{"sampler":5,"target":{"node":2,"path":"translation"}},{"sampler":6,"target":{"node":3,"path":"rotation"}},{"sampler":7,"target":{"node":3,"path":"translation"}},{"sampler":8,"target":{"node":4,"path":"rotation"}},{"sampler":9,"target":{"node":4,"path":"translation"}},{"sampler":10,"target":{"node":5,"path":"scale"}},{"sampler":11,"target":{"node":5,"path":"translation"}},{"sampler":12,"target":{"node":6,"path":"translation"}},{"sampler":13,"target":{"node":6,"path":"rotation"}},{"sampler":14,"target":{"node":6,"path":"scale"}},{"sampler":15,"target":{"node":7,"path":"translation"}},{"sampler":16,"target":{"node":7,"path":"rotation"}},{"sampler":17,"target":{"node":7,"path":"scale"}},{"sampler":18,"target":{"node":8,"path":"translation"}},{"sampler":19,"target":{"node":8,"path":"rotation"}},{"sampler":20,"target":{"node":8,"path":"scale"}},{"sampler":21,"target":{"node":9,"path":"translation"}},{"sampler":22,"target":{"node":9,"path":"rotation"}},{"sampler":23,"target":{"node":9,"path":"scale"}},{"sampler":24,"target":{"node":10,"path":"translation"}},{"sampler":25,"target":{"node":10,"path":"rotation"}},{"sampler":26,"target":{"node":10,"path":"scale"}},{"sampler":27,"target":{"node":11,"path":"translation"}},{"sampler":28,"target":{"node":11,"path":"rotation"}},{"sampler":29,"target":{"node":11,"path":"scale"}},{"sampler":30,"target":{"node":12,"path":"translation"}},{"sampler":31,"target":{"node":12,"path":"rotation"}},{"sampler":32,"target":{"node":12,"path":"scale"}},{"sampler":33,"target":{"node":13,"path":"translation"}},{"sampler":34,"target":{"node":13,"path":"rotation"}},{"sampler":35,"target":{"node":13,"path":"scale"}},{"sampler":36,"target":{"node":14,"path":"translation"}},{"sampler":37,"target":{"node":14,"path":"rotation"}},{"sampler":38,"target":{"node":14,"path":"scale"}},{"sampler":39,"target":{"node":15,"path":"translation"}},{"sampler":40,"target":{"node":15,"path":"rotation"}},{"sampler":41,"target":{"node":15,"path":"scale"}},{"sampler":42,"target":{"node":17,"path":"translation"}},{"sampler":43,"target":{"node":17,"path":"rotation"}},{"sampler":44,"target":{"node":17,"path":"scale"}},{"sampler":45,"target":{"node":18,"path":"translation"}},{"sampler":46,"target":{"node":18,"path":"rotation"}},{"sampler":47,"target":{"node":18,"path":"scale"}},{"sampler":48,"target":{"node":19,"path":"translation"}},{"sampler":49,"target":{"node":19,"path":"rotation"}},{"sampler":50,"target":{"node":19,"path":"scale"}},{"sampler":51,"target":{"node":20,"path":"translation"}},{"sampler":52,"target":{"node":20,"path":"rotation"}},{"sampler":53,"target":{"node":20,"path":"scale"}}],"samplers":[{"input":13,"output":14},{"input":15,"output":16},{"input":17,"output":18},{"input":19,"output":20},{"input":21,"output":22},{"input":23,"output":24},{"input":25,"output":26},{"input":27,"output":28},{"input":29,"output":30},{"input":31,"output":32},{"input":33,"output":34},{"input":35,"output":36},{"input":37,"output":38},{"input":37,"output":39},{"input":37,"output":40},{"input":41,"output":42},{"input":41,"output":43},{"input":41,"output":44},{"input":45,"output":46},{"input":45,"output":47},{"input":45,"output":48},{"input":49,"output":50},{"input":49,"output":51},{"input":49,"output":52},{"input":53,"output":54},{"input":53,"output":55},{"input":53,"output":56},{"input":57,"output":58},{"input":57,"output":59},{"input":57,"output":60},{"input":61,"output":62},{"input":61,"output":63},{"input":61,"output":64},{"input":65,"output":66},{"input":65,"output":67},{"input":65,"output":68},{"input":69,"output":70},{"input":69,"output":71},{"input":69,"output":72},{"input":73,"output":74},{"input":73,"output":75},{"input":73,"output":76},{"input":77,"output":78},{"input":77,"output":79},{"input":77,"output":80},{"input":81,"output":82},{"input":81,"output":83},{"input":81,"output":84},{"input":85,"output":86},{"input":85,"output":87},{"input":85,"output":88},{"input":89,"output":90},{"input":89,"output":91},{"input":89,"output":92}],"name":"All Animations"}],"skins":[{"inverseBindMatrices":12,"skeleton":0,"joints":[0,1,2,3,4,6,7,8,9,10,11,12,13,14,15,16,17,18,19,20,21],"name":"skeleton #0"}]}