{"asset":{"version":"2.0","generator":"babylon.js glTF exporter for Maya 2018 v20200613.4"},"scene":0,"scenes":[{"nodes":[0]}],"nodes":[{"mesh":0,"name":"buss_mid1"}],"meshes":[{"primitives":[{"attributes":{"POSITION":1,"TANGENT":2,"NORMAL":3,"TEXCOORD_0":4},"indices":0,"material":0}],"name":"buss_mid1"}],"accessors":[{"bufferView":0,"componentType":5123,"count":774,"type":"SCALAR","name":"accessorIndices"},{"bufferView":1,"componentType":5126,"count":326,"max":[0.0149920862,0.01846088,0.00747228228],"min":[-0.0150054824,0.000115249153,-0.007469401],"type":"VEC3","name":"accessorPositions"},{"bufferView":2,"componentType":5126,"count":326,"type":"VEC4","name":"accessorTangents"},{"bufferView":1,"byteOffset":3912,"componentType":5126,"count":326,"type":"VEC3","name":"accessorNormals"},{"bufferView":3,"componentType":5126,"count":326,"type":"VEC2","name":"accessorUVs"}],"bufferViews":[{"buffer":0,"byteLength":1548,"name":"bufferViewScalar"},{"buffer":0,"byteOffset":1548,"byteLength":7824,"byteStride":12,"name":"bufferViewFloatVec3"},{"buffer":0,"byteOffset":9372,"byteLength":5216,"byteStride":16,"name":"bufferViewFloatVec4"},{"buffer":0,"byteOffset":14588,"byteLength":2608,"byteStride":8,"name":"bufferViewFloatVec2"}],"buffers":[{"uri":"buss_mid.bin","byteLength":17196}],"materials":[{"pbrMetallicRoughness":{"baseColorTexture":{"index":0},"metallicFactor":0.0,"roughnessFactor":0.450053632},"name":"lambert9"}],"textures":[{"sampler":0,"source":0,"name":"buss_mid_diffuse_2.jpg"}],"images":[{"uri":"buss_mid_diffuse_2.jpg"}],"samplers":[{"magFilter":9729,"minFilter":9987}]}