{"asset":{"version":"2.0","generator":"babylon.js glTF exporter for Maya 2018 v20200813.4"},"scene":0,"scenes":[{"nodes":[0,22]}],"nodes":[{"children":[1,12,17],"translation":[-0.000305166934,0.00639398675,-0.000237270389],"rotation":[0.0,0.0,-0.04721132,0.9988849],"name":"spine1"},{"children":[2],"translation":[0.0,0.00290297135,3.04914211E-05],"rotation":[-0.06078176,0.05568297,0.6680847,0.7395052],"name":"spine2"},{"children":[3,6,9],"translation":[0.00302906265,2.84975158E-05,-0.000162620912],"rotation":[0.9999587,0.009089782,5.56588638E-19,6.122981E-17],"name":"spine3"},{"children":[4],"translation":[0.001872049,2.45067076E-05,7.239015E-20],"rotation":[0.9515652,-0.0114265289,0.302211732,0.055327557],"name":"head1"},{"children":[5],"translation":[0.00683664624,3.06351722E-05,0.000376060867],"rotation":[0.0,0.0,-0.7060181,0.7081938],"name":"head2"},{"mesh":0,"translation":[4.76278728E-05,-0.00252378779,6.137816E-05],"scale":[0.4067596,0.432241946,0.4067596],"name":"hair"},{"children":[7],"translation":[0.0009472975,-0.00262749,-3.46944675E-19],"rotation":[0.004189788,0.0730844438,-0.0853934,0.9936544],"name":"left_arm1"},{"children":[8],"translation":[0.00234284881,-0.0007283191,-2.87188578E-19],"rotation":[0.0,0.0,0.211366445,0.977406859],"name":"left_arm2"},{"translation":[0.00365118287,7.420128E-06,-0.000142727775],"rotation":[-0.2820583,0.020571962,0.7257654,0.627124],"name":"left_arm3"},{"children":[10],"translation":[0.0008879952,0.00264811539,1.27867661E-10],"rotation":[0.72722286,-0.101711564,-0.09246805,0.6724964],"scale":[1.0,1.0,0.99999994],"name":"right_arm1"},{"children":[11],"translation":[-0.00234284,0.000728299958,-2.08166812E-19],"rotation":[0.0,0.0,0.00462948065,0.9999893],"name":"right_arm2"},{"translation":[-0.003651185,-7.394498E-06,0.000142728],"rotation":[-0.07861286,0.197001547,0.6392152,0.739198446],"scale":[0.9999998,0.99999994,1.0],"name":"right_arm3"},{"children":[13],"translation":[-0.0014299266,-0.000115655566,-0.0001013618],"rotation":[-0.146073833,-0.10059116,0.0703673139,0.9816274],"name":"left_leg1"},{"children":[14],"translation":[1.3960024E-06,-0.00293224864,1.945858E-05],"rotation":[0.3038571,-0.000253675418,-0.00125139032,0.952716768],"scale":[0.99999994,1.0,1.0],"name":"left_knee"},{"children":[15],"translation":[0.0,-0.00297919754,-0.000325222936],"rotation":[-0.160078615,-0.03982415,-0.0388474949,0.985535264],"scale":[1.0,0.99999994,1.0],"name":"left_ankle"},{"children":[16],"translation":[0.0,-0.000626887835,0.000491171668],"rotation":[5.5128945E-05,-0.008664139,0.00156983791,0.999961257],"scale":[0.99999994,0.99999994,1.0],"name":"left_foot"},{"translation":[0.0,-0.000278859952,0.000970022054],"name":"left_toe"},{"children":[18],"translation":[0.0014299294,-0.000115659554,-0.00010136162],"rotation":[-0.961154044,-0.1441983,0.0966533944,-0.2145877],"scale":[1.0,1.00000012,1.0],"name":"right_leg1"},{"children":[19],"translation":[-1.4E-06,0.00293224,-1.9458E-05],"rotation":[0.397165745,-0.0005001048,-0.00161846285,0.917745352],"name":"right_knee"},{"children":[20],"translation":[0.0,0.002979202,0.000325222965],"rotation":[-0.18340075,0.0104308659,0.0489298925,0.9817644],"scale":[0.99999994,1.0,1.0],"name":"right_ankle"},{"children":[21],"translation":[0.0,0.000626887952,-0.000491172],"rotation":[0.000495624961,-0.0259138439,0.00468874956,0.9996531],"scale":[1.0,0.99999994,1.0],"name":"right_foot"},{"translation":[0.0,0.000278859981,-0.000970022],"name":"right_toe"},{"skin":0,"mesh":1,"name":"kid"}],"meshes":[{"primitives":[{"attributes":{"POSITION":1,"TANGENT":2,"NORMAL":3,"TEXCOORD_0":4},"indices":0,"material":0}],"name":"hair"},{"primitives":[{"attributes":{"POSITION":6,"TANGENT":7,"NORMAL":8,"TEXCOORD_0":9,"JOINTS_0":10,"WEIGHTS_0":11},"indices":5,"material":1}],"name":"kid"}],"accessors":[{"bufferView":0,"componentType":5123,"count":246,"type":"SCALAR","name":"accessorIndices"},{"bufferView":1,"componentType":5126,"count":65,"max":[0.01,0.00999999,0.009999997],"min":[-0.009999997,-0.0114143444,-0.009999999],"type":"VEC3","name":"accessorPositions"},{"bufferView":2,"componentType":5126,"count":65,"type":"VEC4","name":"accessorTangents"},{"bufferView":1,"byteOffset":780,"componentType":5126,"count":65,"type":"VEC3","name":"accessorNormals"},{"bufferView":3,"componentType":5126,"count":65,"type":"VEC2","name":"accessorUVs"},{"bufferView":0,"byteOffset":492,"componentType":5123,"count":2124,"type":"SCALAR","name":"accessorIndices"},{"bufferView":1,"byteOffset":1560,"componentType":5126,"count":627,"max":[0.00597156631,0.0214983486,0.002229933],"min":[-0.0038943605,-8.473201E-05,-0.0070531033],"type":"VEC3","name":"accessorPositions"},{"bufferView":2,"byteOffset":1040,"componentType":5126,"count":627,"type":"VEC4","name":"accessorTangents"},{"bufferView":1,"byteOffset":9084,"componentType":5126,"count":627,"type":"VEC3","name":"accessorNormals"},{"bufferView":3,"byteOffset":520,"componentType":5126,"count":627,"type":"VEC2","name":"accessorUVs"},{"bufferView":4,"componentType":5123,"count":627,"type":"VEC4","name":"accessorJoints"},{"bufferView":2,"byteOffset":11072,"componentType":5126,"count":627,"type":"VEC4","name":"accessorWeights"},{"bufferView":5,"componentType":5126,"count":21,"type":"MAT4","name":"accessorInverseBindMatrices"},{"bufferView":6,"componentType":5126,"count":23,"max":[0.9166667],"min":[0.0],"type":"SCALAR","name":"accessorAnimationInput"},{"bufferView":7,"componentType":5126,"count":23,"type":"VEC4","name":"accessorAnimationRotations"},{"bufferView":6,"byteOffset":92,"componentType":5126,"count":7,"max":[0.9166667],"min":[0.0],"type":"SCALAR","name":"accessorAnimationInput"},{"bufferView":8,"componentType":5126,"count":7,"type":"VEC3","name":"accessorAnimationPositions"},{"bufferView":6,"byteOffset":120,"componentType":5126,"count":23,"max":[0.9166667],"min":[0.0],"type":"SCALAR","name":"accessorAnimationInput"},{"bufferView":7,"byteOffset":368,"componentType":5126,"count":23,"type":"VEC4","name":"accessorAnimationRotations"},{"bufferView":6,"byteOffset":212,"componentType":5126,"count":2,"max":[0.9166667],"min":[0.0],"type":"SCALAR","name":"accessorAnimationInput"},{"bufferView":8,"byteOffset":84,"componentType":5126,"count":2,"type":"VEC3","name":"accessorAnimationPositions"},{"bufferView":6,"byteOffset":220,"componentType":5126,"count":2,"max":[0.9166667],"min":[0.0],"type":"SCALAR","name":"accessorAnimationInput"},{"bufferView":7,"byteOffset":736,"componentType":5126,"count":2,"type":"VEC4","name":"accessorAnimationRotations"},{"bufferView":6,"byteOffset":228,"componentType":5126,"count":2,"max":[0.9166667],"min":[0.0],"type":"SCALAR","name":"accessorAnimationInput"},{"bufferView":8,"byteOffset":108,"componentType":5126,"count":2,"type":"VEC3","name":"accessorAnimationPositions"},{"bufferView":6,"byteOffset":236,"componentType":5126,"count":23,"max":[0.9166667],"min":[0.0],"type":"SCALAR","name":"accessorAnimationInput"},{"bufferView":7,"byteOffset":768,"componentType":5126,"count":23,"type":"VEC4","name":"accessorAnimationRotations"},{"bufferView":6,"byteOffset":328,"componentType":5126,"count":2,"max":[0.9166667],"min":[0.0],"type":"SCALAR","name":"accessorAnimationInput"},{"bufferView":8,"byteOffset":132,"componentType":5126,"count":2,"type":"VEC3","name":"accessorAnimationPositions"},{"bufferView":6,"byteOffset":336,"componentType":5126,"count":2,"max":[0.9166667],"min":[0.0],"type":"SCALAR","name":"accessorAnimationInput"},{"bufferView":7,"byteOffset":1136,"componentType":5126,"count":2,"type":"VEC4","name":"accessorAnimationRotations"},{"bufferView":6,"byteOffset":344,"componentType":5126,"count":2,"max":[0.9166667],"min":[0.0],"type":"SCALAR","name":"accessorAnimationInput"},{"bufferView":8,"byteOffset":156,"componentType":5126,"count":2,"type":"VEC3","name":"accessorAnimationPositions"},{"bufferView":6,"byteOffset":352,"componentType":5126,"count":2,"max":[0.9166667],"min":[0.0],"type":"SCALAR","name":"accessorAnimationInput"},{"bufferView":8,"byteOffset":180,"componentType":5126,"count":2,"type":"VEC3","name":"accessorAnimationScales"},{"bufferView":6,"byteOffset":360,"componentType":5126,"count":2,"max":[0.9166667],"min":[0.0],"type":"SCALAR","name":"accessorAnimationInput"},{"bufferView":8,"byteOffset":204,"componentType":5126,"count":2,"type":"VEC3","name":"accessorAnimationPositions"},{"bufferView":6,"byteOffset":368,"componentType":5126,"count":21,"max":[0.9166667],"min":[0.0],"type":"SCALAR","name":"accessorAnimationInput"},{"bufferView":8,"byteOffset":228,"componentType":5126,"count":21,"type":"VEC3","name":"accessorAnimationPositions"},{"bufferView":7,"byteOffset":1168,"componentType":5126,"count":21,"type":"VEC4","name":"accessorAnimationRotations"},{"bufferView":8,"byteOffset":480,"componentType":5126,"count":21,"type":"VEC3","name":"accessorAnimationScales"},{"bufferView":6,"byteOffset":452,"componentType":5126,"count":2,"max":[0.9166667],"min":[0.0],"type":"SCALAR","name":"accessorAnimationInput"},{"bufferView":8,"byteOffset":732,"componentType":5126,"count":2,"type":"VEC3","name":"accessorAnimationPositions"},{"bufferView":7,"byteOffset":1504,"componentType":5126,"count":2,"type":"VEC4","name":"accessorAnimationRotations"},{"bufferView":8,"byteOffset":756,"componentType":5126,"count":2,"type":"VEC3","name":"accessorAnimationScales"},{"bufferView":6,"byteOffset":460,"componentType":5126,"count":23,"max":[0.9166667],"min":[0.0],"type":"SCALAR","name":"accessorAnimationInput"},{"bufferView":8,"byteOffset":780,"componentType":5126,"count":23,"type":"VEC3","name":"accessorAnimationPositions"},{"bufferView":7,"byteOffset":1536,"componentType":5126,"count":23,"type":"VEC4","name":"accessorAnimationRotations"},{"bufferView":8,"byteOffset":1056,"componentType":5126,"count":23,"type":"VEC3","name":"accessorAnimationScales"},{"bufferView":6,"byteOffset":552,"componentType":5126,"count":2,"max":[0.9166667],"min":[0.0],"type":"SCALAR","name":"accessorAnimationInput"},{"bufferView":8,"byteOffset":1332,"componentType":5126,"count":2,"type":"VEC3","name":"accessorAnimationPositions"},{"bufferView":7,"byteOffset":1904,"componentType":5126,"count":2,"type":"VEC4","name":"accessorAnimationRotations"},{"bufferView":8,"byteOffset":1356,"componentType":5126,"count":2,"type":"VEC3","name":"accessorAnimationScales"},{"bufferView":6,"byteOffset":560,"componentType":5126,"count":2,"max":[0.9166667],"min":[0.0],"type":"SCALAR","name":"accessorAnimationInput"},{"bufferView":8,"byteOffset":1380,"componentType":5126,"count":2,"type":"VEC3","name":"accessorAnimationPositions"},{"bufferView":7,"byteOffset":1936,"componentType":5126,"count":2,"type":"VEC4","name":"accessorAnimationRotations"},{"bufferView":8,"byteOffset":1404,"componentType":5126,"count":2,"type":"VEC3","name":"accessorAnimationScales"},{"bufferView":6,"byteOffset":568,"componentType":5126,"count":2,"max":[0.9166667],"min":[0.0],"type":"SCALAR","name":"accessorAnimationInput"},{"bufferView":8,"byteOffset":1428,"componentType":5126,"count":2,"type":"VEC3","name":"accessorAnimationPositions"},{"bufferView":7,"byteOffset":1968,"componentType":5126,"count":2,"type":"VEC4","name":"accessorAnimationRotations"},{"bufferView":8,"byteOffset":1452,"componentType":5126,"count":2,"type":"VEC3","name":"accessorAnimationScales"},{"bufferView":6,"byteOffset":576,"componentType":5126,"count":23,"max":[0.9166667],"min":[0.0],"type":"SCALAR","name":"accessorAnimationInput"},{"bufferView":8,"byteOffset":1476,"componentType":5126,"count":23,"type":"VEC3","name":"accessorAnimationPositions"},{"bufferView":7,"byteOffset":2000,"componentType":5126,"count":23,"type":"VEC4","name":"accessorAnimationRotations"},{"bufferView":8,"byteOffset":1752,"componentType":5126,"count":23,"type":"VEC3","name":"accessorAnimationScales"},{"bufferView":6,"byteOffset":668,"componentType":5126,"count":23,"max":[0.9166667],"min":[0.0],"type":"SCALAR","name":"accessorAnimationInput"},{"bufferView":8,"byteOffset":2028,"componentType":5126,"count":23,"type":"VEC3","name":"accessorAnimationPositions"},{"bufferView":7,"byteOffset":2368,"componentType":5126,"count":23,"type":"VEC4","name":"accessorAnimationRotations"},{"bufferView":8,"byteOffset":2304,"componentType":5126,"count":23,"type":"VEC3","name":"accessorAnimationScales"},{"bufferView":6,"byteOffset":760,"componentType":5126,"count":23,"max":[0.9166667],"min":[0.0],"type":"SCALAR","name":"accessorAnimationInput"},{"bufferView":8,"byteOffset":2580,"componentType":5126,"count":23,"type":"VEC3","name":"accessorAnimationPositions"},{"bufferView":7,"byteOffset":2736,"componentType":5126,"count":23,"type":"VEC4","name":"accessorAnimationRotations"},{"bufferView":8,"byteOffset":2856,"componentType":5126,"count":23,"type":"VEC3","name":"accessorAnimationScales"},{"bufferView":6,"byteOffset":852,"componentType":5126,"count":23,"max":[0.9166667],"min":[0.0],"type":"SCALAR","name":"accessorAnimationInput"},{"bufferView":8,"byteOffset":3132,"componentType":5126,"count":23,"type":"VEC3","name":"accessorAnimationPositions"},{"bufferView":7,"byteOffset":3104,"componentType":5126,"count":23,"type":"VEC4","name":"accessorAnimationRotations"},{"bufferView":8,"byteOffset":3408,"componentType":5126,"count":23,"type":"VEC3","name":"accessorAnimationScales"},{"bufferView":6,"byteOffset":944,"componentType":5126,"count":23,"max":[0.9166667],"min":[0.0],"type":"SCALAR","name":"accessorAnimationInput"},{"bufferView":8,"byteOffset":3684,"componentType":5126,"count":23,"type":"VEC3","name":"accessorAnimationPositions"},{"bufferView":7,"byteOffset":3472,"componentType":5126,"count":23,"type":"VEC4","name":"accessorAnimationRotations"},{"bufferView":8,"byteOffset":3960,"componentType":5126,"count":23,"type":"VEC3","name":"accessorAnimationScales"},{"bufferView":6,"byteOffset":1036,"componentType":5126,"count":23,"max":[0.9166667],"min":[0.0],"type":"SCALAR","name":"accessorAnimationInput"},{"bufferView":8,"byteOffset":4236,"componentType":5126,"count":23,"type":"VEC3","name":"accessorAnimationPositions"},{"bufferView":7,"byteOffset":3840,"componentType":5126,"count":23,"type":"VEC4","name":"accessorAnimationRotations"},{"bufferView":8,"byteOffset":4512,"componentType":5126,"count":23,"type":"VEC3","name":"accessorAnimationScales"},{"bufferView":6,"byteOffset":1128,"componentType":5126,"count":23,"max":[0.9166667],"min":[0.0],"type":"SCALAR","name":"accessorAnimationInput"},{"bufferView":8,"byteOffset":4788,"componentType":5126,"count":23,"type":"VEC3","name":"accessorAnimationPositions"},{"bufferView":7,"byteOffset":4208,"componentType":5126,"count":23,"type":"VEC4","name":"accessorAnimationRotations"},{"bufferView":8,"byteOffset":5064,"componentType":5126,"count":23,"type":"VEC3","name":"accessorAnimationScales"},{"bufferView":6,"byteOffset":1220,"componentType":5126,"count":23,"max":[0.9166667],"min":[0.0],"type":"SCALAR","name":"accessorAnimationInput"},{"bufferView":8,"byteOffset":5340,"componentType":5126,"count":23,"type":"VEC3","name":"accessorAnimationPositions"},{"bufferView":7,"byteOffset":4576,"componentType":5126,"count":23,"type":"VEC4","name":"accessorAnimationRotations"},{"bufferView":8,"byteOffset":5616,"componentType":5126,"count":23,"type":"VEC3","name":"accessorAnimationScales"},{"bufferView":6,"byteOffset":1312,"componentType":5126,"count":20,"max":[0.7916667],"min":[0.0],"type":"SCALAR","name":"accessorAnimationInput"},{"bufferView":7,"byteOffset":4944,"componentType":5126,"count":20,"type":"VEC4","name":"accessorAnimationRotations"},{"bufferView":6,"byteOffset":1392,"componentType":5126,"count":19,"max":[0.7916667],"min":[0.0],"type":"SCALAR","name":"accessorAnimationInput"},{"bufferView":8,"byteOffset":5892,"componentType":5126,"count":19,"type":"VEC3","name":"accessorAnimationPositions"},{"bufferView":6,"byteOffset":1468,"componentType":5126,"count":2,"max":[0.7916667],"min":[0.0],"type":"SCALAR","name":"accessorAnimationInput"},{"bufferView":7,"byteOffset":5264,"componentType":5126,"count":2,"type":"VEC4","name":"accessorAnimationRotations"},{"bufferView":6,"byteOffset":1476,"componentType":5126,"count":2,"max":[0.7916667],"min":[0.0],"type":"SCALAR","name":"accessorAnimationInput"},{"bufferView":8,"byteOffset":6120,"componentType":5126,"count":2,"type":"VEC3","name":"accessorAnimationPositions"},{"bufferView":6,"byteOffset":1484,"componentType":5126,"count":2,"max":[0.7916667],"min":[0.0],"type":"SCALAR","name":"accessorAnimationInput"},{"bufferView":7,"byteOffset":5296,"componentType":5126,"count":2,"type":"VEC4","name":"accessorAnimationRotations"},{"bufferView":6,"byteOffset":1492,"componentType":5126,"count":2,"max":[0.7916667],"min":[0.0],"type":"SCALAR","name":"accessorAnimationInput"},{"bufferView":8,"byteOffset":6144,"componentType":5126,"count":2,"type":"VEC3","name":"accessorAnimationPositions"},{"bufferView":6,"byteOffset":1500,"componentType":5126,"count":20,"max":[0.7916667],"min":[0.0],"type":"SCALAR","name":"accessorAnimationInput"},{"bufferView":7,"byteOffset":5328,"componentType":5126,"count":20,"type":"VEC4","name":"accessorAnimationRotations"},{"bufferView":6,"byteOffset":1580,"componentType":5126,"count":2,"max":[0.7916667],"min":[0.0],"type":"SCALAR","name":"accessorAnimationInput"},{"bufferView":8,"byteOffset":6168,"componentType":5126,"count":2,"type":"VEC3","name":"accessorAnimationPositions"},{"bufferView":6,"byteOffset":1588,"componentType":5126,"count":2,"max":[0.7916667],"min":[0.0],"type":"SCALAR","name":"accessorAnimationInput"},{"bufferView":7,"byteOffset":5648,"componentType":5126,"count":2,"type":"VEC4","name":"accessorAnimationRotations"},{"bufferView":6,"byteOffset":1596,"componentType":5126,"count":2,"max":[0.7916667],"min":[0.0],"type":"SCALAR","name":"accessorAnimationInput"},{"bufferView":8,"byteOffset":6192,"componentType":5126,"count":2,"type":"VEC3","name":"accessorAnimationPositions"},{"bufferView":6,"byteOffset":1604,"componentType":5126,"count":2,"max":[0.7916667],"min":[0.0],"type":"SCALAR","name":"accessorAnimationInput"},{"bufferView":8,"byteOffset":6216,"componentType":5126,"count":2,"type":"VEC3","name":"accessorAnimationScales"},{"bufferView":6,"byteOffset":1612,"componentType":5126,"count":2,"max":[0.7916667],"min":[0.0],"type":"SCALAR","name":"accessorAnimationInput"},{"bufferView":8,"byteOffset":6240,"componentType":5126,"count":2,"type":"VEC3","name":"accessorAnimationPositions"},{"bufferView":6,"byteOffset":1620,"componentType":5126,"count":20,"max":[0.7916667],"min":[0.0],"type":"SCALAR","name":"accessorAnimationInput"},{"bufferView":8,"byteOffset":6264,"componentType":5126,"count":20,"type":"VEC3","name":"accessorAnimationPositions"},{"bufferView":7,"byteOffset":5680,"componentType":5126,"count":20,"type":"VEC4","name":"accessorAnimationRotations"},{"bufferView":8,"byteOffset":6504,"componentType":5126,"count":20,"type":"VEC3","name":"accessorAnimationScales"},{"bufferView":6,"byteOffset":1700,"componentType":5126,"count":20,"max":[0.7916667],"min":[0.0],"type":"SCALAR","name":"accessorAnimationInput"},{"bufferView":8,"byteOffset":6744,"componentType":5126,"count":20,"type":"VEC3","name":"accessorAnimationPositions"},{"bufferView":7,"byteOffset":6000,"componentType":5126,"count":20,"type":"VEC4","name":"accessorAnimationRotations"},{"bufferView":8,"byteOffset":6984,"componentType":5126,"count":20,"type":"VEC3","name":"accessorAnimationScales"},{"bufferView":6,"byteOffset":1780,"componentType":5126,"count":20,"max":[0.7916667],"min":[0.0],"type":"SCALAR","name":"accessorAnimationInput"},{"bufferView":8,"byteOffset":7224,"componentType":5126,"count":20,"type":"VEC3","name":"accessorAnimationPositions"},{"bufferView":7,"byteOffset":6320,"componentType":5126,"count":20,"type":"VEC4","name":"accessorAnimationRotations"},{"bufferView":8,"byteOffset":7464,"componentType":5126,"count":20,"type":"VEC3","name":"accessorAnimationScales"},{"bufferView":6,"byteOffset":1860,"componentType":5126,"count":20,"max":[0.7916667],"min":[0.0],"type":"SCALAR","name":"accessorAnimationInput"},{"bufferView":8,"byteOffset":7704,"componentType":5126,"count":20,"type":"VEC3","name":"accessorAnimationPositions"},{"bufferView":7,"byteOffset":6640,"componentType":5126,"count":20,"type":"VEC4","name":"accessorAnimationRotations"},{"bufferView":8,"byteOffset":7944,"componentType":5126,"count":20,"type":"VEC3","name":"accessorAnimationScales"},{"bufferView":6,"byteOffset":1940,"componentType":5126,"count":20,"max":[0.7916667],"min":[0.0],"type":"SCALAR","name":"accessorAnimationInput"},{"bufferView":8,"byteOffset":8184,"componentType":5126,"count":20,"type":"VEC3","name":"accessorAnimationPositions"},{"bufferView":7,"byteOffset":6960,"componentType":5126,"count":20,"type":"VEC4","name":"accessorAnimationRotations"},{"bufferView":8,"byteOffset":8424,"componentType":5126,"count":20,"type":"VEC3","name":"accessorAnimationScales"},{"bufferView":6,"byteOffset":2020,"componentType":5126,"count":20,"max":[0.7916667],"min":[0.0],"type":"SCALAR","name":"accessorAnimationInput"},{"bufferView":8,"byteOffset":8664,"componentType":5126,"count":20,"type":"VEC3","name":"accessorAnimationPositions"},{"bufferView":7,"byteOffset":7280,"componentType":5126,"count":20,"type":"VEC4","name":"accessorAnimationRotations"},{"bufferView":8,"byteOffset":8904,"componentType":5126,"count":20,"type":"VEC3","name":"accessorAnimationScales"},{"bufferView":6,"byteOffset":2100,"componentType":5126,"count":20,"max":[0.7916667],"min":[0.0],"type":"SCALAR","name":"accessorAnimationInput"},{"bufferView":8,"byteOffset":9144,"componentType":5126,"count":20,"type":"VEC3","name":"accessorAnimationPositions"},{"bufferView":7,"byteOffset":7600,"componentType":5126,"count":20,"type":"VEC4","name":"accessorAnimationRotations"},{"bufferView":8,"byteOffset":9384,"componentType":5126,"count":20,"type":"VEC3","name":"accessorAnimationScales"},{"bufferView":6,"byteOffset":2180,"componentType":5126,"count":20,"max":[0.7916667],"min":[0.0],"type":"SCALAR","name":"accessorAnimationInput"},{"bufferView":8,"byteOffset":9624,"componentType":5126,"count":20,"type":"VEC3","name":"accessorAnimationPositions"},{"bufferView":7,"byteOffset":7920,"componentType":5126,"count":20,"type":"VEC4","name":"accessorAnimationRotations"},{"bufferView":8,"byteOffset":9864,"componentType":5126,"count":20,"type":"VEC3","name":"accessorAnimationScales"},{"bufferView":6,"byteOffset":2260,"componentType":5126,"count":20,"max":[0.7916667],"min":[0.0],"type":"SCALAR","name":"accessorAnimationInput"},{"bufferView":8,"byteOffset":10104,"componentType":5126,"count":20,"type":"VEC3","name":"accessorAnimationPositions"},{"bufferView":7,"byteOffset":8240,"componentType":5126,"count":20,"type":"VEC4","name":"accessorAnimationRotations"},{"bufferView":8,"byteOffset":10344,"componentType":5126,"count":20,"type":"VEC3","name":"accessorAnimationScales"},{"bufferView":6,"byteOffset":2340,"componentType":5126,"count":20,"max":[0.7916667],"min":[0.0],"type":"SCALAR","name":"accessorAnimationInput"},{"bufferView":8,"byteOffset":10584,"componentType":5126,"count":20,"type":"VEC3","name":"accessorAnimationPositions"},{"bufferView":7,"byteOffset":8560,"componentType":5126,"count":20,"type":"VEC4","name":"accessorAnimationRotations"},{"bufferView":8,"byteOffset":10824,"componentType":5126,"count":20,"type":"VEC3","name":"accessorAnimationScales"},{"bufferView":6,"byteOffset":2420,"componentType":5126,"count":20,"max":[0.7916667],"min":[0.0],"type":"SCALAR","name":"accessorAnimationInput"},{"bufferView":8,"byteOffset":11064,"componentType":5126,"count":20,"type":"VEC3","name":"accessorAnimationPositions"},{"bufferView":7,"byteOffset":8880,"componentType":5126,"count":20,"type":"VEC4","name":"accessorAnimationRotations"},{"bufferView":8,"byteOffset":11304,"componentType":5126,"count":20,"type":"VEC3","name":"accessorAnimationScales"},{"bufferView":6,"byteOffset":2500,"componentType":5126,"count":20,"max":[0.7916667],"min":[0.0],"type":"SCALAR","name":"accessorAnimationInput"},{"bufferView":8,"byteOffset":11544,"componentType":5126,"count":20,"type":"VEC3","name":"accessorAnimationPositions"},{"bufferView":7,"byteOffset":9200,"componentType":5126,"count":20,"type":"VEC4","name":"accessorAnimationRotations"},{"bufferView":8,"byteOffset":11784,"componentType":5126,"count":20,"type":"VEC3","name":"accessorAnimationScales"},{"bufferView":6,"byteOffset":2580,"componentType":5126,"count":20,"max":[0.7916667],"min":[0.0],"type":"SCALAR","name":"accessorAnimationInput"},{"bufferView":8,"byteOffset":12024,"componentType":5126,"count":20,"type":"VEC3","name":"accessorAnimationPositions"},{"bufferView":7,"byteOffset":9520,"componentType":5126,"count":20,"type":"VEC4","name":"accessorAnimationRotations"},{"bufferView":8,"byteOffset":12264,"componentType":5126,"count":20,"type":"VEC3","name":"accessorAnimationScales"},{"bufferView":6,"byteOffset":2660,"componentType":5126,"count":19,"max":[0.7916667],"min":[0.0],"type":"SCALAR","name":"accessorAnimationInput"},{"bufferView":8,"byteOffset":12504,"componentType":5126,"count":19,"type":"VEC3","name":"accessorAnimationPositions"},{"bufferView":7,"byteOffset":9840,"componentType":5126,"count":19,"type":"VEC4","name":"accessorAnimationRotations"},{"bufferView":8,"byteOffset":12732,"componentType":5126,"count":19,"type":"VEC3","name":"accessorAnimationScales"}],"bufferViews":[{"buffer":0,"byteLength":4740,"name":"bufferViewScalar"},{"buffer":0,"byteOffset":4740,"byteLength":16608,"byteStride":12,"name":"bufferViewFloatVec3"},{"buffer":0,"byteOffset":21348,"byteLength":21104,"byteStride":16,"name":"bufferViewFloatVec4"},{"buffer":0,"byteOffset":42452,"byteLength":5536,"byteStride":8,"name":"bufferViewFloatVec2"},{"buffer":0,"byteOffset":47988,"byteLength":5016,"byteStride":8,"name":"bufferViewUnsignedShortVec4"},{"buffer":0,"byteOffset":53004,"byteLength":1344,"name":"bufferViewFloatMat4"},{"buffer":0,"byteOffset":54348,"byteLength":2736,"name":"bufferViewAnimationFloatScalar"},{"buffer":0,"byteOffset":57084,"byteLength":10144,"name":"bufferViewAnimationFloatVec4"},{"buffer":0,"byteOffset":67228,"byteLength":12960,"name":"bufferViewAnimationFloatVec3"}],"buffers":[{"uri":"kid_wave_run_2.bin","byteLength":80188}],"materials":[{"pbrMetallicRoughness":{"baseColorTexture":{"index":0},"metallicFactor":0.0,"roughnessFactor":0.450053632},"name":"lambert3"},{"pbrMetallicRoughness":{"baseColorTexture":{"index":1},"metallicFactor":0.0,"roughnessFactor":0.450053632},"name":"lambert2"}],"textures":[{"sampler":0,"source":0,"name":"kid_hair_diffuse.png"},{"sampler":0,"source":1,"name":"kid_diffuse_2.jpg"}],"images":[{"uri":"kid_hair_diffuse.png"},{"uri":"kid_diffuse_2.jpg"}],"samplers":[{"magFilter":9729,"minFilter":9987}],"animations":[{"channels":[{"sampler":0,"target":{"node":0,"path":"rotation"}},{"sampler":1,"target":{"node":0,"path":"translation"}},{"sampler":2,"target":{"node":1,"path":"rotation"}},{"sampler":3,"target":{"node":1,"path":"translation"}},{"sampler":4,"target":{"node":2,"path":"rotation"}},{"sampler":5,"target":{"node":2,"path":"translation"}},{"sampler":6,"target":{"node":3,"path":"rotation"}},{"sampler":7,"target":{"node":3,"path":"translation"}},{"sampler":8,"target":{"node":4,"path":"rotation"}},{"sampler":9,"target":{"node":4,"path":"translation"}},{"sampler":10,"target":{"node":5,"path":"scale"}},{"sampler":11,"target":{"node":5,"path":"translation"}},{"sampler":12,"target":{"node":6,"path":"translation"}},{"sampler":13,"target":{"node":6,"path":"rotation"}},{"sampler":14,"target":{"node":6,"path":"scale"}},{"sampler":15,"target":{"node":7,"path":"translation"}},{"sampler":16,"target":{"node":7,"path":"rotation"}},{"sampler":17,"target":{"node":7,"path":"scale"}},{"sampler":18,"target":{"node":8,"path":"translation"}},{"sampler":19,"target":{"node":8,"path":"rotation"}},{"sampler":20,"target":{"node":8,"path":"scale"}},{"sampler":21,"target":{"node":9,"path":"translation"}},{"sampler":22,"target":{"node":9,"path":"rotation"}},{"sampler":23,"target":{"node":9,"path":"scale"}},{"sampler":24,"target":{"node":10,"path":"translation"}},{"sampler":25,"target":{"node":10,"path":"rotation"}},{"sampler":26,"target":{"node":10,"path":"scale"}},{"sampler":27,"target":{"node":11,"path":"translation"}},{"sampler":28,"target":{"node":11,"path":"rotation"}},{"sampler":29,"target":{"node":11,"path":"scale"}},{"sampler":30,"target":{"node":12,"path":"translation"}},{"sampler":31,"target":{"node":12,"path":"rotation"}},{"sampler":32,"target":{"node":12,"path":"scale"}},{"sampler":33,"target":{"node":13,"path":"translation"}},{"sampler":34,"target":{"node":13,"path":"rotation"}},{"sampler":35,"target":{"node":13,"path":"scale"}},{"sampler":36,"target":{"node":14,"path":"translation"}},{"sampler":37,"target":{"node":14,"path":"rotation"}},{"sampler":38,"target":{"node":14,"path":"scale"}},{"sampler":39,"target":{"node":15,"path":"translation"}},{"sampler":40,"target":{"node":15,"path":"rotation"}},{"sampler":41,"target":{"node":15,"path":"scale"}},{"sampler":42,"target":{"node":17,"path":"translation"}},{"sampler":43,"target":{"node":17,"path":"rotation"}},{"sampler":44,"target":{"node":17,"path":"scale"}},{"sampler":45,"target":{"node":18,"path":"translation"}},{"sampler":46,"target":{"node":18,"path":"rotation"}},{"sampler":47,"target":{"node":18,"path":"scale"}},{"sampler":48,"target":{"node":19,"path":"translation"}},{"sampler":49,"target":{"node":19,"path":"rotation"}},{"sampler":50,"target":{"node":19,"path":"scale"}},{"sampler":51,"target":{"node":20,"path":"translation"}},{"sampler":52,"target":{"node":20,"path":"rotation"}},{"sampler":53,"target":{"node":20,"path":"scale"}}],"samplers":[{"input":13,"output":14},{"input":15,"output":16},{"input":17,"output":18},{"input":19,"output":20},{"input":21,"output":22},{"input":23,"output":24},{"input":25,"output":26},{"input":27,"output":28},{"input":29,"output":30},{"input":31,"output":32},{"input":33,"output":34},{"input":35,"output":36},{"input":37,"output":38},{"input":37,"output":39},{"input":37,"output":40},{"input":41,"output":42},{"input":41,"output":43},{"input":41,"output":44},{"input":45,"output":46},{"input":45,"output":47},{"input":45,"output":48},{"input":49,"output":50},{"input":49,"output":51},{"input":49,"output":52},{"input":53,"output":54},{"input":53,"output":55},{"input":53,"output":56},{"input":57,"output":58},{"input":57,"output":59},{"input":57,"output":60},{"input":61,"output":62},{"input":61,"output":63},{"input":61,"output":64},{"input":65,"output":66},{"input":65,"output":67},{"input":65,"output":68},{"input":69,"output":70},{"input":69,"output":71},{"input":69,"output":72},{"input":73,"output":74},{"input":73,"output":75},{"input":73,"output":76},{"input":77,"output":78},{"input":77,"output":79},{"input":77,"output":80},{"input":81,"output":82},{"input":81,"output":83},{"input":81,"output":84},{"input":85,"output":86},{"input":85,"output":87},{"input":85,"output":88},{"input":89,"output":90},{"input":89,"output":91},{"input":89,"output":92}],"name":"wave"},{"channels":[{"sampler":0,"target":{"node":0,"path":"rotation"}},{"sampler":1,"target":{"node":0,"path":"translation"}},{"sampler":2,"target":{"node":1,"path":"rotation"}},{"sampler":3,"target":{"node":1,"path":"translation"}},{"sampler":4,"target":{"node":2,"path":"rotation"}},{"sampler":5,"target":{"node":2,"path":"translation"}},{"sampler":6,"target":{"node":3,"path":"rotation"}},{"sampler":7,"target":{"node":3,"path":"translation"}},{"sampler":8,"target":{"node":4,"path":"rotation"}},{"sampler":9,"target":{"node":4,"path":"translation"}},{"sampler":10,"target":{"node":5,"path":"scale"}},{"sampler":11,"target":{"node":5,"path":"translation"}},{"sampler":12,"target":{"node":6,"path":"translation"}},{"sampler":13,"target":{"node":6,"path":"rotation"}},{"sampler":14,"target":{"node":6,"path":"scale"}},{"sampler":15,"target":{"node":7,"path":"translation"}},{"sampler":16,"target":{"node":7,"path":"rotation"}},{"sampler":17,"target":{"node":7,"path":"scale"}},{"sampler":18,"target":{"node":8,"path":"translation"}},{"sampler":19,"target":{"node":8,"path":"rotation"}},{"sampler":20,"target":{"node":8,"path":"scale"}},{"sampler":21,"target":{"node":9,"path":"translation"}},{"sampler":22,"target":{"node":9,"path":"rotation"}},{"sampler":23,"target":{"node":9,"path":"scale"}},{"sampler":24,"target":{"node":10,"path":"translation"}},{"sampler":25,"target":{"node":10,"path":"rotation"}},{"sampler":26,"target":{"node":10,"path":"scale"}},{"sampler":27,"target":{"node":11,"path":"translation"}},{"sampler":28,"target":{"node":11,"path":"rotation"}},{"sampler":29,"target":{"node":11,"path":"scale"}},{"sampler":30,"target":{"node":12,"path":"translation"}},{"sampler":31,"target":{"node":12,"path":"rotation"}},{"sampler":32,"target":{"node":12,"path":"scale"}},{"sampler":33,"target":{"node":13,"path":"translation"}},{"sampler":34,"target":{"node":13,"path":"rotation"}},{"sampler":35,"target":{"node":13,"path":"scale"}},{"sampler":36,"target":{"node":14,"path":"translation"}},{"sampler":37,"target":{"node":14,"path":"rotation"}},{"sampler":38,"target":{"node":14,"path":"scale"}},{"sampler":39,"target":{"node":15,"path":"translation"}},{"sampler":40,"target":{"node":15,"path":"rotation"}},{"sampler":41,"target":{"node":15,"path":"scale"}},{"sampler":42,"target":{"node":17,"path":"translation"}},{"sampler":43,"target":{"node":17,"path":"rotation"}},{"sampler":44,"target":{"node":17,"path":"scale"}},{"sampler":45,"target":{"node":18,"path":"translation"}},{"sampler":46,"target":{"node":18,"path":"rotation"}},{"sampler":47,"target":{"node":18,"path":"scale"}},{"sampler":48,"target":{"node":19,"path":"translation"}},{"sampler":49,"target":{"node":19,"path":"rotation"}},{"sampler":50,"target":{"node":19,"path":"scale"}},{"sampler":51,"target":{"node":20,"path":"translation"}},{"sampler":52,"target":{"node":20,"path":"rotation"}},{"sampler":53,"target":{"node":20,"path":"scale"}}],"samplers":[{"input":93,"output":94},{"input":95,"output":96},{"input":97,"output":98},{"input":99,"output":100},{"input":101,"output":102},{"input":103,"output":104},{"input":105,"output":106},{"input":107,"output":108},{"input":109,"output":110},{"input":111,"output":112},{"input":113,"output":114},{"input":115,"output":116},{"input":117,"output":118},{"input":117,"output":119},{"input":117,"output":120},{"input":121,"output":122},{"input":121,"output":123},{"input":121,"output":124},{"input":125,"output":126},{"input":125,"output":127},{"input":125,"output":128},{"input":129,"output":130},{"input":129,"output":131},{"input":129,"output":132},{"input":133,"output":134},{"input":133,"output":135},{"input":133,"output":136},{"input":137,"output":138},{"input":137,"output":139},{"input":137,"output":140},{"input":141,"output":142},{"input":141,"output":143},{"input":141,"output":144},{"input":145,"output":146},{"input":145,"output":147},{"input":145,"output":148},{"input":149,"output":150},{"input":149,"output":151},{"input":149,"output":152},{"input":153,"output":154},{"input":153,"output":155},{"input":153,"output":156},{"input":157,"output":158},{"input":157,"output":159},{"input":157,"output":160},{"input":161,"output":162},{"input":161,"output":163},{"input":161,"output":164},{"input":165,"output":166},{"input":165,"output":167},{"input":165,"output":168},{"input":169,"output":170},{"input":169,"output":171},{"input":169,"output":172}],"name":"run"}],"skins":[{"inverseBindMatrices":12,"skeleton":0,"joints":[0,1,2,3,4,6,7,8,9,10,11,12,13,14,15,16,17,18,19,20,21],"name":"skeleton #0"}]}