{"asset":{"version":"2.0","generator":"babylon.js glTF exporter for Maya 2018 v20200613.4"},"scene":0,"scenes":[{"nodes":[0,1]}],"nodes":[{"skin":0,"mesh":0,"translation":[0.0331215039,-0.00565808173,-0.00341725023],"scale":[0.8231225,0.8231225,0.8231225],"name":"kid1"},{"children":[2],"translation":[0.000185511017,0.006748941,-1.60389518E-05],"rotation":[0.24274911,0.6641332,0.24274911,0.664133132],"name":"joint1"},{"translation":[0.002222921,1.7526183E-05,-4.906689E-19],"rotation":[-0.0949113742,-0.7007081,-0.0949113742,0.7007081],"name":"joint2"}],"meshes":[{"primitives":[{"attributes":{"POSITION":1,"TANGENT":2,"NORMAL":3,"TEXCOORD_0":4,"JOINTS_0":5,"WEIGHTS_0":6},"indices":0,"material":0}],"name":"kid1"}],"accessors":[{"bufferView":0,"componentType":5123,"count":768,"type":"SCALAR","name":"accessorIndices"},{"bufferView":1,"componentType":5126,"count":210,"max":[-0.0368910655,0.0241871849,0.008851656],"min":[-0.0434063263,0.007013023,-0.0004990772],"type":"VEC3","name":"accessorPositions"},{"bufferView":2,"componentType":5126,"count":210,"type":"VEC4","name":"accessorTangents"},{"bufferView":1,"byteOffset":2520,"componentType":5126,"count":210,"type":"VEC3","name":"accessorNormals"},{"bufferView":3,"componentType":5126,"count":210,"type":"VEC2","name":"accessorUVs"},{"bufferView":4,"componentType":5123,"count":210,"type":"VEC4","name":"accessorJoints"},{"bufferView":2,"byteOffset":3360,"componentType":5126,"count":210,"type":"VEC4","name":"accessorWeights"},{"bufferView":5,"componentType":5126,"count":2,"type":"MAT4","name":"accessorInverseBindMatrices"},{"bufferView":6,"componentType":5126,"count":2,"max":[8.291667],"min":[0.0],"type":"SCALAR","name":"accessorAnimationInput"},{"bufferView":7,"componentType":5126,"count":2,"type":"VEC3","name":"accessorAnimationScales"},{"bufferView":6,"byteOffset":8,"componentType":5126,"count":2,"max":[8.291667],"min":[0.0],"type":"SCALAR","name":"accessorAnimationInput"},{"bufferView":7,"byteOffset":24,"componentType":5126,"count":2,"type":"VEC3","name":"accessorAnimationPositions"},{"bufferView":6,"byteOffset":16,"componentType":5126,"count":35,"max":[8.291667],"min":[0.0],"type":"SCALAR","name":"accessorAnimationInput"},{"bufferView":7,"byteOffset":48,"componentType":5126,"count":35,"type":"VEC3","name":"accessorAnimationPositions"},{"bufferView":8,"componentType":5126,"count":35,"type":"VEC4","name":"accessorAnimationRotations"},{"bufferView":7,"byteOffset":468,"componentType":5126,"count":35,"type":"VEC3","name":"accessorAnimationScales"}],"bufferViews":[{"buffer":0,"byteLength":1536,"name":"bufferViewScalar"},{"buffer":0,"byteOffset":1536,"byteLength":5040,"byteStride":12,"name":"bufferViewFloatVec3"},{"buffer":0,"byteOffset":6576,"byteLength":6720,"byteStride":16,"name":"bufferViewFloatVec4"},{"buffer":0,"byteOffset":13296,"byteLength":1680,"byteStride":8,"name":"bufferViewFloatVec2"},{"buffer":0,"byteOffset":14976,"byteLength":1680,"byteStride":8,"name":"bufferViewUnsignedShortVec4"},{"buffer":0,"byteOffset":16656,"byteLength":128,"name":"bufferViewFloatMat4"},{"buffer":0,"byteOffset":16784,"byteLength":156,"name":"bufferViewAnimationFloatScalar"},{"buffer":0,"byteOffset":16940,"byteLength":888,"name":"bufferViewAnimationFloatVec3"},{"buffer":0,"byteOffset":17828,"byteLength":560,"name":"bufferViewAnimationFloatVec4"}],"buffers":[{"uri":"kid_med_animation.bin","byteLength":18388}],"materials":[{"pbrMetallicRoughness":{"baseColorFactor":[0.5,0.5,0.5,1.0],"metallicFactor":0.0,"roughnessFactor":0.450053632},"name":"lambert1"}],"animations":[{"channels":[{"sampler":0,"target":{"node":0,"path":"scale"}},{"sampler":1,"target":{"node":0,"path":"translation"}},{"sampler":2,"target":{"node":2,"path":"translation"}},{"sampler":3,"target":{"node":2,"path":"rotation"}},{"sampler":4,"target":{"node":2,"path":"scale"}}],"samplers":[{"input":8,"output":9},{"input":10,"output":11},{"input":12,"output":13},{"input":12,"output":14},{"input":12,"output":15}],"name":"All Animations"}],"skins":[{"inverseBindMatrices":7,"skeleton":1,"joints":[1,2],"name":"skeleton #0"}]}