{"asset":{"version":"2.0","generator":"babylon.js glTF exporter for Maya 2018 v20200813.4"},"scene":0,"scenes":[{"nodes":[0]}],"nodes":[{"mesh":0,"translation":[-0.09586048,0.0,-0.0332016759],"rotation":[0.0,0.707106769,0.0,0.707106769],"scale":[0.8052736,1.0,-1.0],"name":"hus2"}],"meshes":[{"primitives":[{"attributes":{"POSITION":1,"TANGENT":2,"NORMAL":3,"TEXCOORD_0":4},"indices":0,"material":0}],"name":"hus2"}],"accessors":[{"bufferView":0,"componentType":5123,"count":150,"type":"SCALAR","name":"accessorIndices"},{"bufferView":1,"componentType":5126,"count":92,"max":[-0.073566705,0.0526174456,0.1195514],"min":[-0.118922479,-0.000112649053,0.0684722438],"type":"VEC3","name":"accessorPositions"},{"bufferView":2,"componentType":5126,"count":92,"type":"VEC4","name":"accessorTangents"},{"bufferView":1,"byteOffset":1104,"componentType":5126,"count":92,"type":"VEC3","name":"accessorNormals"},{"bufferView":3,"componentType":5126,"count":92,"type":"VEC2","name":"accessorUVs"},{"bufferView":4,"componentType":5126,"count":2,"max":[8.291667],"min":[0.0],"type":"SCALAR","name":"accessorAnimationInput"},{"bufferView":5,"componentType":5126,"count":2,"type":"VEC3","name":"accessorAnimationScales"},{"bufferView":4,"byteOffset":8,"componentType":5126,"count":2,"max":[8.291667],"min":[0.0],"type":"SCALAR","name":"accessorAnimationInput"},{"bufferView":6,"componentType":5126,"count":2,"type":"VEC4","name":"accessorAnimationRotations"},{"bufferView":4,"byteOffset":16,"componentType":5126,"count":2,"max":[8.291667],"min":[0.0],"type":"SCALAR","name":"accessorAnimationInput"},{"bufferView":5,"byteOffset":24,"componentType":5126,"count":2,"type":"VEC3","name":"accessorAnimationPositions"}],"bufferViews":[{"buffer":0,"byteLength":300,"name":"bufferViewScalar"},{"buffer":0,"byteOffset":300,"byteLength":2208,"byteStride":12,"name":"bufferViewFloatVec3"},{"buffer":0,"byteOffset":2508,"byteLength":1472,"byteStride":16,"name":"bufferViewFloatVec4"},{"buffer":0,"byteOffset":3980,"byteLength":736,"byteStride":8,"name":"bufferViewFloatVec2"},{"buffer":0,"byteOffset":4716,"byteLength":24,"name":"bufferViewAnimationFloatScalar"},{"buffer":0,"byteOffset":4740,"byteLength":48,"name":"bufferViewAnimationFloatVec3"},{"buffer":0,"byteOffset":4788,"byteLength":32,"name":"bufferViewAnimationFloatVec4"}],"buffers":[{"uri":"hus2.bin","byteLength":4820}],"materials":[{"pbrMetallicRoughness":{"baseColorFactor":[0.5,0.5,0.5,1.0],"metallicFactor":0.0,"roughnessFactor":0.450053632},"name":"lambert1"}],"animations":[{"channels":[{"sampler":0,"target":{"node":0,"path":"scale"}},{"sampler":1,"target":{"node":0,"path":"rotation"}},{"sampler":2,"target":{"node":0,"path":"translation"}}],"samplers":[{"input":5,"output":6},{"input":7,"output":8},{"input":9,"output":10}],"name":"All Animations"}]}