{"asset":{"version":"2.0","generator":"babylon.js glTF exporter for Maya 2018 v20200613.4"},"scene":0,"scenes":[{"nodes":[0]}],"nodes":[{"mesh":0,"translation":[0.0450155549,0.0,0.0],"name":"buss_bak1"}],"meshes":[{"primitives":[{"attributes":{"POSITION":1,"TANGENT":2,"NORMAL":3,"TEXCOORD_0":4},"indices":0,"material":0}],"name":"buss_bak1"}],"accessors":[{"bufferView":0,"componentType":5123,"count":816,"type":"SCALAR","name":"accessorIndices"},{"bufferView":1,"componentType":5126,"count":345,"max":[-0.0300004054,0.01846088,0.00747228228],"min":[-0.05999893,0.000115249153,-0.007469401],"type":"VEC3","name":"accessorPositions"},{"bufferView":2,"componentType":5126,"count":345,"type":"VEC4","name":"accessorTangents"},{"bufferView":1,"byteOffset":4140,"componentType":5126,"count":345,"type":"VEC3","name":"accessorNormals"},{"bufferView":3,"componentType":5126,"count":345,"type":"VEC2","name":"accessorUVs"},{"bufferView":4,"componentType":5126,"count":2,"max":[8.291667],"min":[0.0],"type":"SCALAR","name":"accessorAnimationInput"},{"bufferView":5,"componentType":5126,"count":2,"type":"VEC3","name":"accessorAnimationPositions"}],"bufferViews":[{"buffer":0,"byteLength":1632,"name":"bufferViewScalar"},{"buffer":0,"byteOffset":1632,"byteLength":8280,"byteStride":12,"name":"bufferViewFloatVec3"},{"buffer":0,"byteOffset":9912,"byteLength":5520,"byteStride":16,"name":"bufferViewFloatVec4"},{"buffer":0,"byteOffset":15432,"byteLength":2760,"byteStride":8,"name":"bufferViewFloatVec2"},{"buffer":0,"byteOffset":18192,"byteLength":8,"name":"bufferViewAnimationFloatScalar"},{"buffer":0,"byteOffset":18200,"byteLength":24,"name":"bufferViewAnimationFloatVec3"}],"buffers":[{"uri":"buss_bak.bin","byteLength":18224}],"materials":[{"pbrMetallicRoughness":{"baseColorTexture":{"index":0},"metallicFactor":0.0,"roughnessFactor":0.450053632},"name":"lambert11"}],"textures":[{"sampler":0,"source":0,"name":"buss_bak_diffuse_2.jpg"}],"images":[{"uri":"buss_bak_diffuse_2.jpg"}],"samplers":[{"magFilter":9729,"minFilter":9987}],"animations":[{"channels":[{"sampler":0,"target":{"node":0,"path":"translation"}}],"samplers":[{"input":5,"output":6}],"name":"All Animations"}]}